<svg width="165" height="24" viewBox="0 0 165 24" fill="none" xmlns="http://www.w3.org/2000/svg">
<path d="M155.916 20.2513C150.56 20.2513 146.996 17.1607 146.833 12.5013H153.378C153.517 13.7656 154.472 14.632 155.916 14.632C157.477 14.632 158.478 13.6018 158.478 12.1501C158.478 10.6984 157.477 9.71504 155.916 9.71504C154.472 9.71504 153.401 10.6516 153.378 12.2672L146.833 11.7989C147.019 7.16292 150.583 4.0957 155.916 4.0957C161.39 4.0957 165 7.32682 165 12.1735C165 17.0202 161.39 20.2513 155.916 20.2513Z" fill="black"/>
<path d="M139.313 19.7834V8.48622L145.718 6.4375L144.553 19.7834H139.313Z" fill="black"/>
<path d="M139.438 0H146.658L146.134 4.68278L139.438 6.7315V0Z" fill="#4340DB"/>
<path d="M131.208 19.7867V0.00195312L137.613 0.00195679V19.7867H131.208Z" fill="black"/>
<path d="M120.849 20.2513C115.492 20.2513 111.928 17.1607 111.765 12.5013H118.31C118.45 13.7656 119.404 14.632 120.849 14.632C122.409 14.632 123.411 13.6018 123.411 12.1501C123.411 10.6984 122.409 9.71504 120.849 9.71504C119.404 9.71504 118.333 10.6516 118.31 12.2672L111.765 11.7989C111.951 7.16292 115.515 4.0957 120.849 4.0957C126.322 4.0957 129.932 7.32682 129.932 12.1735C129.932 17.0202 126.322 20.2513 120.849 20.2513Z" fill="black"/>
<path d="M110.486 6.79199H100.704V8.89924H110.137V14.8698H100.704V19.9038H92.9019V0.00195312L110.486 0.00195312V6.79199Z" fill="black"/>
<path d="M73.9297 19.783V4.56398H80.3346V19.783H73.9297ZM80.5675 5.66444C81.802 4.56398 83.1761 4.0957 84.8065 4.0957C88.137 4.0957 89.418 5.75809 89.418 9.76187V12.8291L83.0131 13.2974V10.7218C83.0131 10.2536 82.85 10.1365 82.4308 10.1365C82.1047 10.1365 81.6156 10.3706 81.0334 10.8155L80.5675 5.66444Z" fill="black"/>
<path d="M63.5697 20.2513C58.2128 20.2513 54.6494 17.1607 54.4863 12.5013H61.031C61.1708 13.7656 62.1257 14.632 63.5697 14.632C65.1302 14.632 66.1317 13.6017 66.1317 12.1501C66.1317 10.6984 65.1302 9.71504 63.5697 9.71504C62.1257 9.71504 61.0543 10.6516 61.031 12.2672L54.4863 11.7989C54.6727 7.16292 58.2361 4.0957 63.5697 4.0957C69.043 4.0957 72.6531 7.32682 72.6531 12.1735C72.6531 17.0202 69.043 20.2513 63.5697 20.2513Z" fill="black"/>
<path d="M46.7471 0L54.3166 0L53.7343 7.02417L46.7471 8.78022V0Z" fill="#FFA722"/>
<path d="M53.1985 18.098C53.1985 22.734 51.4983 23.9983 46.2579 23.9983H44.9536L44.4878 18.4961H45.5825C46.5607 18.4961 46.7936 18.2619 46.7936 17.1615V10.5353L53.735 8.7793L53.1985 18.098Z" fill="black"/>
<path d="M27.6028 5.66444C30.1182 4.65764 33.9611 4.0957 36.5464 4.0957C41.0415 4.0957 43.2076 5.38347 43.2076 9.24676V19.783H36.8026V14.3042H36.2203C34.4968 14.3042 33.2857 14.4446 33.2857 15.2641C33.2857 15.9666 34.2872 16.107 35.7545 16.107H35.9874L36.5697 19.666C35.6614 20.0172 33.9844 20.2513 32.4239 20.2513C28.3248 20.2513 26.3218 18.5889 26.3218 15.8495C26.3218 12.7589 29.2797 10.4409 34.7297 10.4409H36.8026V10.394C36.8026 9.317 36.6862 9.17652 35.4052 9.17652C33.146 9.17652 30.0483 9.8087 28.0686 10.394L27.6028 5.66444Z" fill="black"/>
<path d="M0 0L8.90063 0L12.577 10.3255L16.179 0L25.154 0V19.7848H17.9339V9.55288L14.7896 19.7848H10.3644L7.22013 9.55288V19.7848H0L0 0Z" fill="black"/>
</svg>
