<svg width="24" height="24" viewBox="0 0 24 24" fill="none" xmlns="http://www.w3.org/2000/svg">
<mask id="mask0_1876_15185" style="mask-type:alpha" maskUnits="userSpaceOnUse" x="0" y="0" width="24" height="24">
<rect width="24" height="24" fill="#D9D9D9"/>
</mask>
<g mask="url(#mask0_1876_15185)">
<path d="M7.55556 16.4444H13.7778V14.6667H7.55556V16.4444ZM7.55556 12.8889H16.4444V11.1111H7.55556V12.8889ZM7.55556 9.33333H16.4444V7.55556H7.55556V9.33333ZM5.77778 20C5.28889 20 4.87037 19.8259 4.52222 19.4778C4.17407 19.1296 4 18.7111 4 18.2222V5.77778C4 5.28889 4.17407 4.87037 4.52222 4.52222C4.87037 4.17407 5.28889 4 5.77778 4H18.2222C18.7111 4 19.1296 4.17407 19.4778 4.52222C19.8259 4.87037 20 5.28889 20 5.77778V18.2222C20 18.7111 19.8259 19.1296 19.4778 19.4778C19.1296 19.8259 18.7111 20 18.2222 20H5.77778ZM5.77778 18.2222H18.2222V5.77778H5.77778V18.2222Z" fill="#767D86"/>
</g>
</svg>
