<svg width="24" height="24" viewBox="0 0 24 24" fill="none" xmlns="http://www.w3.org/2000/svg">
<mask id="mask0_1876_15182" style="mask-type:alpha" maskUnits="userSpaceOnUse" x="0" y="0" width="24" height="24">
<rect width="24" height="24" fill="#D9D9D9"/>
</mask>
<g mask="url(#mask0_1876_15182)">
<path d="M6.55556 20C6.12778 20 5.76157 19.8433 5.45694 19.53C5.15231 19.2167 5 18.84 5 18.4V7.2C5 6.76 5.15231 6.38333 5.45694 6.07C5.76157 5.75667 6.12778 5.6 6.55556 5.6H7.33333V4H8.88889V5.6H15.1111V4H16.6667V5.6H17.4444C17.8722 5.6 18.2384 5.75667 18.5431 6.07C18.8477 6.38333 19 6.76 19 7.2V18.4C19 18.84 18.8477 19.2167 18.5431 19.53C18.2384 19.8433 17.8722 20 17.4444 20H6.55556ZM6.55556 18.4H17.4444V10.4H6.55556V18.4ZM6.55556 8.8H17.4444V7.2H6.55556V8.8Z" fill="#767D86"/>
</g>
</svg>
