<svg width="24" height="24" viewBox="0 0 24 24" fill="none" xmlns="http://www.w3.org/2000/svg">
<rect x="0.00195312" width="24" height="24" rx="12" fill="#F53165"/>
<path d="M15.3814 5.58162L4.65216 10.1812C4.32449 10.3216 4.14896 10.6807 4.23941 11.0256L5.55279 16.0328C5.60882 16.2465 5.75982 16.4226 5.96241 16.5106L10.7937 18.6088C10.9451 18.6746 11.1146 18.6863 11.2736 18.642L19.2933 16.4097C19.6972 16.2972 19.92 15.8648 19.7771 15.4706L16.3419 5.99792C16.2009 5.60891 15.7617 5.41858 15.3814 5.58162Z" fill="#0EA44D"/>
<path d="M13.6828 6.31032L4.65214 10.182C4.32448 10.3224 4.14896 10.6815 4.23941 11.0264L5.55298 16.0344C5.60891 16.2476 5.75943 16.4234 5.96146 16.5116L10.7698 18.6098C10.9203 18.6755 11.0887 18.6877 11.2472 18.6445L17.2678 17.0022C17.6665 16.8935 17.8921 16.472 17.7614 16.0799L14.6495 6.74439C14.5163 6.34474 14.0699 6.14433 13.6828 6.31032Z" fill="#26BF66"/>
<path fill-rule="evenodd" clip-rule="evenodd" d="M7.31082 11.4004C6.8668 11.6912 6.55859 12.3292 6.55859 13.0695C6.55859 14.0839 7.13733 14.9063 7.85123 14.9063C8.56514 14.9063 9.14387 14.0839 9.14387 13.0695C9.14387 12.8758 9.12278 12.6892 9.08369 12.5139L7.31082 11.4004Z" fill="white"/>
<path fill-rule="evenodd" clip-rule="evenodd" d="M11.197 11.4004C11.641 11.6912 11.9492 12.3292 11.9492 13.0695C11.9492 14.0839 11.3705 14.9063 10.6566 14.9063C9.94267 14.9063 9.36394 14.0839 9.36394 13.0695C9.36394 12.8758 9.38503 12.6892 9.42412 12.5139L11.197 11.4004Z" fill="white"/>
<path fill-rule="evenodd" clip-rule="evenodd" d="M11.932 13.3857C11.8484 14.1703 11.4155 14.7921 10.8657 14.9208C10.5468 14.7628 10.3213 14.3738 10.3213 13.919C10.3213 13.3241 10.7071 12.8418 11.183 12.8418C11.5038 12.8418 11.7836 13.0608 11.932 13.3857Z" fill="url(#paint0_linear_1876_15031)"/>
<path fill-rule="evenodd" clip-rule="evenodd" d="M9.12385 13.3907C8.98127 13.0417 8.69091 12.8027 8.3559 12.8027C7.87996 12.8027 7.49414 13.285 7.49414 13.8799C7.49414 14.3384 7.72324 14.7299 8.04612 14.8854C8.59341 14.7676 9.02808 14.1622 9.12385 13.3907Z" fill="url(#paint1_linear_1876_15031)"/>
<ellipse cx="7.7228" cy="13.503" rx="0.46303" ry="0.231515" fill="white"/>
<ellipse cx="0.46303" cy="0.231515" rx="0.46303" ry="0.231515" transform="matrix(-1 0 0 1 10.9912 13.2715)" fill="white"/>
<defs>
<linearGradient id="paint0_linear_1876_15031" x1="11.7849" y1="14.6791" x2="10.465" y2="13.239" gradientUnits="userSpaceOnUse">
<stop/>
<stop offset="1" stop-opacity="0.53"/>
</linearGradient>
<linearGradient id="paint1_linear_1876_15031" x1="8.70506" y1="14.4842" x2="7.77916" y2="13.0956" gradientUnits="userSpaceOnUse">
<stop/>
<stop offset="1" stop-opacity="0.53"/>
</linearGradient>
</defs>
</svg>
