<svg width="137" height="20" viewBox="0 0 137 20" fill="none" xmlns="http://www.w3.org/2000/svg">
<g id="Group 6491">
<path id="&#226;&#128;&#153;" d="M114.953 0H121.008L120.569 3.90651L114.953 5.61561V0Z" fill="#4340DB"/>
<path id="&#226;&#128;&#153;_2" d="M39.0566 0H45.4049L44.9166 5.85977L39.0566 7.32471V0Z" fill="#FFA722"/>
<g id="Major Folio">
<path id="Vector" d="M128.746 16.8817C124.263 16.8817 121.281 14.309 121.145 10.4305H126.621C126.738 11.483 127.537 12.2041 128.746 12.2041C130.052 12.2041 130.89 11.3465 130.89 10.1382C130.89 8.92978 130.052 8.11119 128.746 8.11119C127.537 8.11119 126.641 8.89079 126.621 10.2356L121.145 9.8458C121.3 5.98678 124.282 3.43359 128.746 3.43359C133.326 3.43359 136.347 6.12322 136.347 10.1576C136.347 14.1921 133.326 16.8817 128.746 16.8817Z" fill="#232629"/>
<path id="Vector_2" d="M114.852 16.4921V7.08819L120.211 5.38281L119.237 16.4921H114.852Z" fill="#232629"/>
<path id="Vector_3" d="M108.069 16.4925V0.0234375L113.429 0.0234406V16.4925H108.069Z" fill="#232629"/>
<path id="Vector_4" d="M99.4001 16.8817C94.9173 16.8817 91.9353 14.309 91.7988 10.4305H97.2756C97.3926 11.483 98.1917 12.2041 99.4001 12.2041C100.706 12.2041 101.544 11.3465 101.544 10.1382C101.544 8.92978 100.706 8.11119 99.4001 8.11119C98.1917 8.11119 97.2951 8.89079 97.2756 10.2356L91.7988 9.8458C91.9548 5.98678 94.9368 3.43359 99.4001 3.43359C103.98 3.43359 107.001 6.12322 107.001 10.1576C107.001 14.1921 103.98 16.8817 99.4001 16.8817Z" fill="#232629"/>
<path id="Vector_5" d="M90.728 5.67554H82.542V7.42964H90.4356V12.3996H82.542V16.5899H76.0127V0.0234375H90.728V5.67554Z" fill="#232629"/>
<path id="Vector_6" d="M61.8672 16.4919V3.82339H67.2271V16.4919H61.8672ZM67.422 4.73942C68.455 3.82339 69.6049 3.43359 70.9692 3.43359C73.7564 3.43359 74.8283 4.81738 74.8283 8.15017V10.7034L69.4685 11.0932V8.94926C69.4685 8.55946 69.332 8.46201 68.9812 8.46201C68.7083 8.46201 68.299 8.65691 67.8118 9.02722L67.422 4.73942Z" fill="#232629"/>
<path id="Vector_7" d="M53.198 16.8817C48.7151 16.8817 45.7331 14.309 45.5967 10.4305H51.0735C51.1904 11.483 51.9895 12.2041 53.198 12.2041C54.5038 12.2041 55.3419 11.3465 55.3419 10.1382C55.3419 8.92977 54.5038 8.11119 53.198 8.11119C51.9895 8.11119 51.093 8.89079 51.0735 10.2356L45.5967 9.8458C45.7526 5.98678 48.7346 3.43359 53.198 3.43359C57.7782 3.43359 60.7992 6.12321 60.7992 10.1576C60.7992 14.1921 57.7782 16.8817 53.198 16.8817Z" fill="#232629"/>
<path id="Vector_8" d="M44.5189 15.089C44.5189 18.9481 43.0961 20.0005 38.7108 20.0005H37.6193L37.2295 15.4204H38.1455C38.9641 15.4204 39.159 15.2255 39.159 14.3094V8.79378L44.9679 7.33203L44.5189 15.089Z" fill="#232629"/>
<path id="Vector_9" d="M23.0983 4.73942C25.2033 3.90135 28.4192 3.43359 30.5827 3.43359C34.3443 3.43359 36.1569 4.50554 36.1569 7.72139V16.4919H30.7971V11.9312H30.3098C28.8675 11.9312 27.854 12.0482 27.854 12.7303C27.854 13.315 28.6921 13.432 29.92 13.432H30.1149L30.6022 16.3944C29.842 16.6868 28.4387 16.8817 27.1329 16.8817C23.7025 16.8817 22.0264 15.4979 22.0264 13.2176C22.0264 10.6449 24.5017 8.71538 29.0624 8.71538H30.7971V8.6764C30.7971 7.77986 30.6996 7.66292 29.6276 7.66292C27.7371 7.66292 25.1448 8.18915 23.4882 8.6764L23.0983 4.73942Z" fill="#232629"/>
<path id="Vector_10" d="M0 0.0234375H7.44834L10.5248 8.61853L13.5391 0.0234375H21.0497V16.4925H15.0076V7.97536L12.3764 16.4925H8.67325L6.04204 7.97536V16.4925H0V0.0234375Z" fill="#232629"/>
</g>
</g>
</svg>
