<svg width="44" height="44" viewBox="0 0 44 44" fill="none" xmlns="http://www.w3.org/2000/svg">
<mask id="mask0_5914_13535" style="mask-type:alpha" maskUnits="userSpaceOnUse" x="10" y="10" width="24" height="24">
<rect x="10" y="10" width="24" height="24" fill="#D9D9D9"/>
</mask>
<g mask="url(#mask0_5914_13535)">
<path d="M19 28C18.45 28 17.9792 27.8042 17.5875 27.4125C17.1958 27.0208 17 26.55 17 26V14C17 13.45 17.1958 12.9792 17.5875 12.5875C17.9792 12.1958 18.45 12 19 12H28C28.55 12 29.0208 12.1958 29.4125 12.5875C29.8042 12.9792 30 13.45 30 14V26C30 26.55 29.8042 27.0208 29.4125 27.4125C29.0208 27.8042 28.55 28 28 28H19ZM19 26H28V14H19V26ZM15 32C14.45 32 13.9792 31.8042 13.5875 31.4125C13.1958 31.0208 13 30.55 13 30V16H15V30H26V32H15Z" fill="#A3ABB3"/>
</g>
</svg>
