<svg width="24" height="24" viewBox="0 0 24 24" fill="none" xmlns="http://www.w3.org/2000/svg">
<mask id="mask0_1876_15178" style="mask-type:alpha" maskUnits="userSpaceOnUse" x="0" y="0" width="24" height="24">
<rect width="24" height="24" fill="#D9D9D9"/>
</mask>
<g mask="url(#mask0_1876_15178)">
<path d="M7.33333 20C6.68519 20 6.13426 19.7667 5.68056 19.3C5.22685 18.8333 5 18.2667 5 17.6V15.2H7.33333V4H19V17.6C19 18.2667 18.7731 18.8333 18.3194 19.3C17.8657 19.7667 17.3148 20 16.6667 20H7.33333ZM16.6667 18.4C16.887 18.4 17.0718 18.3233 17.2208 18.17C17.3699 18.0167 17.4444 17.8267 17.4444 17.6V5.6H8.88889V15.2H15.8889V17.6C15.8889 17.8267 15.9634 18.0167 16.1125 18.17C16.2616 18.3233 16.4463 18.4 16.6667 18.4ZM9.66667 9.6V8H16.6667V9.6H9.66667ZM9.66667 12V10.4H16.6667V12H9.66667ZM7.33333 18.4H14.3333V16.8H6.55556V17.6C6.55556 17.8267 6.63009 18.0167 6.77917 18.17C6.92824 18.3233 7.11296 18.4 7.33333 18.4ZM7.33333 18.4H6.55556H14.3333H7.33333Z" fill="#767D86"/>
</g>
</svg>
