<svg width="24" height="24" viewBox="0 0 24 24" fill="none" xmlns="http://www.w3.org/2000/svg">
<rect width="24" height="24" rx="12" fill="#F53165"/>
<path d="M15.3794 5.58162L4.65021 10.1812C4.32254 10.3216 4.14701 10.6807 4.23746 11.0256L5.55083 16.0328C5.60687 16.2465 5.75787 16.4226 5.96046 16.5106L10.7918 18.6088C10.9432 18.6746 11.1126 18.6863 11.2717 18.642L19.2913 16.4097C19.6953 16.2972 19.9181 15.8648 19.7751 15.4706L16.34 5.99792C16.1989 5.60891 15.7597 5.41858 15.3794 5.58162Z" fill="#0EA44D"/>
<path d="M13.6808 6.31032L4.65019 10.182C4.32253 10.3224 4.14701 10.6815 4.23746 11.0264L5.55103 16.0344C5.60695 16.2476 5.75747 16.4234 5.95951 16.5116L10.7678 18.6098C10.9183 18.6755 11.0868 18.6877 11.2452 18.6445L17.2658 17.0022C17.6646 16.8935 17.8901 16.472 17.7594 16.0799L14.6476 6.74439C14.5143 6.34474 14.068 6.14433 13.6808 6.31032Z" fill="#26BF66"/>
<path fill-rule="evenodd" clip-rule="evenodd" d="M7.30887 11.4004C6.86484 11.6912 6.55664 12.3292 6.55664 13.0695C6.55664 14.0839 7.13538 14.9063 7.84928 14.9063C8.56319 14.9063 9.14192 14.0839 9.14192 13.0695C9.14192 12.8758 9.12083 12.6892 9.08174 12.5139L7.30887 11.4004Z" fill="white"/>
<path fill-rule="evenodd" clip-rule="evenodd" d="M11.196 11.4004C11.64 11.6912 11.9482 12.3292 11.9482 13.0695C11.9482 14.0839 11.3695 14.9063 10.6556 14.9063C9.9417 14.9063 9.36296 14.0839 9.36296 13.0695C9.36296 12.8758 9.38405 12.6892 9.42314 12.5139L11.196 11.4004Z" fill="white"/>
<path fill-rule="evenodd" clip-rule="evenodd" d="M11.93 13.3857C11.8464 14.1703 11.4136 14.7921 10.8637 14.9208C10.5448 14.7628 10.3193 14.3738 10.3193 13.919C10.3193 13.3241 10.7052 12.8418 11.1811 12.8418C11.5018 12.8418 11.7816 13.0608 11.93 13.3857Z" fill="url(#paint0_linear_1646_7738)"/>
<path fill-rule="evenodd" clip-rule="evenodd" d="M9.1219 13.3907C8.97932 13.0417 8.68896 12.8027 8.35395 12.8027C7.87801 12.8027 7.49219 13.285 7.49219 13.8799C7.49219 14.3384 7.72128 14.7299 8.04417 14.8854C8.59146 14.7676 9.02613 14.1622 9.1219 13.3907Z" fill="url(#paint1_linear_1646_7738)"/>
<ellipse cx="7.72084" cy="13.503" rx="0.46303" ry="0.231515" fill="white"/>
<ellipse cx="0.46303" cy="0.231515" rx="0.46303" ry="0.231515" transform="matrix(-1 0 0 1 10.9893 13.2715)" fill="white"/>
<defs>
<linearGradient id="paint0_linear_1646_7738" x1="11.7829" y1="14.6791" x2="10.4631" y2="13.239" gradientUnits="userSpaceOnUse">
<stop/>
<stop offset="1" stop-opacity="0.53"/>
</linearGradient>
<linearGradient id="paint1_linear_1646_7738" x1="8.7031" y1="14.4842" x2="7.77721" y2="13.0956" gradientUnits="userSpaceOnUse">
<stop/>
<stop offset="1" stop-opacity="0.53"/>
</linearGradient>
</defs>
</svg>
