<svg width="92" height="92" viewBox="0 0 92 92" fill="none" xmlns="http://www.w3.org/2000/svg">
<rect width="92" height="92" rx="46" fill="#FF7052"/>
<path fill-rule="evenodd" clip-rule="evenodd" d="M72.1145 57.9447C68.8569 62.8307 62.7577 64.4685 56.9142 65.8828C50.561 67.4205 35.1324 71.2044 29.3756 67.7326C23.5081 64.1939 35.5155 54.9154 33.9756 48.4126C32.4336 41.9009 18.9556 34.7148 22.9356 29.5526C26.8049 24.534 41.7107 27.2585 48.2356 26.7926C53.7643 26.3978 55.346 20.6701 60.1954 23.5729C65.2534 26.6006 66.405 37.3765 68.0142 42.9116C69.7123 48.7523 75.3919 53.0292 72.1145 57.9447Z" fill="#6234D7"/>
<path fill-rule="evenodd" clip-rule="evenodd" d="M72.1166 57.9461C68.859 62.832 62.7598 64.4698 56.9163 65.8841C50.5631 67.4218 43.6013 69.7128 37.8446 66.241C31.977 62.7024 38.2767 54.93 36.7368 48.4272C35.1948 41.9155 27.6967 37.4895 31.6768 32.3273C35.546 27.3087 42.6318 30.0331 49.1568 29.5673C54.6854 29.1725 56.7269 26.6647 61.5763 29.5676C66.6344 32.5952 66.4071 37.3779 68.0163 42.9129C69.7144 48.7537 75.394 53.0305 72.1166 57.9461Z" fill="#7E4FF6"/>
<ellipse cx="49.6442" cy="52.1888" rx="5.08758" ry="6.99543" fill="white"/>
<ellipse cx="51.4553" cy="50.7131" rx="2.3" ry="2.76" fill="url(#paint0_linear_1941_15288)"/>
<ellipse cx="60.738" cy="52.1888" rx="5.08758" ry="6.99543" fill="white"/>
<ellipse cx="49.1376" cy="49.7841" rx="1.8224" ry="0.911198" transform="rotate(180 49.1376 49.7841)" fill="white"/>
<ellipse cx="62.4953" cy="50.7131" rx="2.3" ry="2.76" fill="url(#paint1_linear_1941_15288)"/>
<ellipse cx="60.4491" cy="49.7841" rx="1.8224" ry="0.911198" transform="rotate(180 60.4491 49.7841)" fill="white"/>
<defs>
<linearGradient id="paint0_linear_1941_15288" x1="50.6252" y1="49.1639" x2="52.9594" y2="52.811" gradientUnits="userSpaceOnUse">
<stop/>
<stop offset="1" stop-opacity="0.53"/>
</linearGradient>
<linearGradient id="paint1_linear_1941_15288" x1="61.6652" y1="49.1639" x2="63.9994" y2="52.811" gradientUnits="userSpaceOnUse">
<stop/>
<stop offset="1" stop-opacity="0.53"/>
</linearGradient>
</defs>
</svg>
