<svg width="24" height="24" viewBox="0 0 24 24" fill="none" xmlns="http://www.w3.org/2000/svg">
<mask id="mask0_1876_15181" style="mask-type:alpha" maskUnits="userSpaceOnUse" x="0" y="0" width="24" height="24">
<rect width="24" height="24" fill="#D9D9D9"/>
</mask>
<g mask="url(#mask0_1876_15181)">
<path d="M8.625 20C7.9 20 7.28125 19.7267 6.76875 19.18C6.25625 18.6333 6 17.9733 6 17.2V6.8C6 6.02667 6.25625 5.36667 6.76875 4.82C7.28125 4.27333 7.9 4 8.625 4H18V16C17.6875 16 17.4219 16.1167 17.2031 16.35C16.9844 16.5833 16.875 16.8667 16.875 17.2C16.875 17.5333 16.9844 17.8167 17.2031 18.05C17.4219 18.2833 17.6875 18.4 18 18.4V20H8.625ZM7.5 14.66C7.675 14.5667 7.85625 14.5 8.04375 14.46C8.23125 14.42 8.425 14.4 8.625 14.4H9V5.6H8.625C8.3125 5.6 8.04688 5.71667 7.82812 5.95C7.60938 6.18333 7.5 6.46667 7.5 6.8V14.66ZM10.5 14.4H16.5V5.6H10.5V14.4ZM8.625 18.4H15.6187C15.5437 18.2133 15.4844 18.0233 15.4406 17.83C15.3969 17.6367 15.375 17.4267 15.375 17.2C15.375 16.9867 15.3938 16.78 15.4312 16.58C15.4688 16.38 15.5312 16.1867 15.6187 16H8.625C8.3 16 8.03125 16.1167 7.81875 16.35C7.60625 16.5833 7.5 16.8667 7.5 17.2C7.5 17.5467 7.60625 17.8333 7.81875 18.06C8.03125 18.2867 8.3 18.4 8.625 18.4Z" fill="#767D86"/>
</g>
</svg>
