<svg width="24" height="24" viewBox="0 0 24 24" fill="none" xmlns="http://www.w3.org/2000/svg">
<rect width="24" height="24" rx="12" fill="#FF7052"/>
<path fill-rule="evenodd" clip-rule="evenodd" d="M18.8133 15.1161C17.9634 16.3907 16.3723 16.818 14.848 17.1869C13.1906 17.588 9.16573 18.5751 7.66397 17.6695C6.1333 16.7463 9.26568 14.3258 8.86397 12.6295C8.46171 10.9307 4.9457 9.05613 5.98397 7.70945C6.99335 6.40026 10.8818 7.11099 12.584 6.98945C14.0262 6.88648 14.4389 5.39227 15.7039 6.14953C17.0234 6.93936 17.3238 9.75048 17.7436 11.1944C18.1866 12.7181 19.6682 13.8338 18.8133 15.1161Z" fill="#6234D7"/>
<path fill-rule="evenodd" clip-rule="evenodd" d="M18.8127 15.1153C17.9629 16.3899 16.3718 16.8172 14.8474 17.1861C13.1901 17.5873 11.374 18.1849 9.8722 17.2792C8.34153 16.3561 9.98492 14.3286 9.58321 12.6322C9.18094 10.9335 7.22493 9.77886 8.2632 8.43218C9.27258 7.12298 11.121 7.83371 12.8232 7.71218C14.2655 7.6092 14.798 6.955 16.0631 7.71226C17.3826 8.50208 17.3233 9.74973 17.7431 11.1937C18.1861 12.7173 19.6677 13.833 18.8127 15.1153Z" fill="#7E4FF6"/>
<ellipse cx="12.9512" cy="13.614" rx="1.3272" ry="1.82489" fill="white"/>
<ellipse cx="13.4232" cy="13.2298" rx="0.6" ry="0.72" fill="url(#paint0_linear_1646_7740)"/>
<ellipse cx="15.8448" cy="13.614" rx="1.3272" ry="1.82489" fill="white"/>
<ellipse cx="12.8185" cy="12.9869" rx="0.475408" ry="0.237704" transform="rotate(180 12.8185 12.9869)" fill="white"/>
<ellipse cx="16.3031" cy="13.2298" rx="0.6" ry="0.72" fill="url(#paint1_linear_1646_7740)"/>
<ellipse cx="15.7697" cy="12.9869" rx="0.475408" ry="0.237704" transform="rotate(180 15.7697 12.9869)" fill="white"/>
<defs>
<linearGradient id="paint0_linear_1646_7740" x1="13.2067" y1="12.8256" x2="13.8156" y2="13.777" gradientUnits="userSpaceOnUse">
<stop/>
<stop offset="1" stop-opacity="0.53"/>
</linearGradient>
<linearGradient id="paint1_linear_1646_7740" x1="16.0866" y1="12.8256" x2="16.6955" y2="13.777" gradientUnits="userSpaceOnUse">
<stop/>
<stop offset="1" stop-opacity="0.53"/>
</linearGradient>
</defs>
</svg>
