<svg width="24" height="24" viewBox="0 0 24 24" fill="none" xmlns="http://www.w3.org/2000/svg">
<rect width="24" height="24" rx="12" fill="#7E4FF6"/>
<path fill-rule="evenodd" clip-rule="evenodd" d="M5.09748 15.1189C5.94729 16.3935 7.53839 16.8208 9.06277 17.1897C10.7201 17.5909 14.745 18.578 16.2468 17.6723C17.7774 16.7492 17.8683 14.7795 18.27 13.0831C18.6723 11.3844 18.965 9.05895 17.9268 7.71227C16.9174 6.40308 15.7722 5.52462 14.07 5.40309C12.6278 5.30011 9.47187 5.3951 8.2068 6.15236C6.88732 6.94218 6.27002 8.76414 5.67002 10.4442C5.22704 11.9679 4.24252 13.8366 5.09748 15.1189Z" fill="#F74924"/>
<path fill-rule="evenodd" clip-rule="evenodd" d="M5.285 14.5246C6.13482 15.7992 9.16068 15.8359 10.6851 16.2048C12.3424 16.606 13.9833 16.5102 15.4851 15.6045C17.0157 14.6814 17.2433 13.2209 17.6451 11.5245C18.0473 9.82582 18.3233 8.67116 17.285 7.32448C16.2757 6.01528 15.7773 5.52488 14.0751 5.40335C12.6329 5.30037 9.477 5.39536 8.21192 6.15262C6.89245 6.94245 6.27514 8.7644 5.67514 10.4445C5.23216 11.9682 4.43004 13.2423 5.285 14.5246Z" fill="#FF7052"/>
<ellipse cx="8.53227" cy="12.3893" rx="1.3272" ry="1.82489" fill="white"/>
<ellipse cx="8.18106" cy="12.9641" rx="0.6" ry="0.72" fill="url(#paint0_linear_1646_7741)"/>
<ellipse cx="11.4258" cy="12.3893" rx="1.3272" ry="1.82489" fill="white"/>
<ellipse cx="8.53631" cy="12.9615" rx="0.475408" ry="0.237704" transform="rotate(180 8.53631 12.9615)" fill="white"/>
<ellipse cx="11.0609" cy="12.9641" rx="0.6" ry="0.72" fill="url(#paint1_linear_1646_7741)"/>
<ellipse cx="11.4875" cy="12.9615" rx="0.475408" ry="0.237704" transform="rotate(180 11.4875 12.9615)" fill="white"/>
<defs>
<linearGradient id="paint0_linear_1646_7741" x1="7.96452" y1="12.56" x2="8.57342" y2="13.5114" gradientUnits="userSpaceOnUse">
<stop/>
<stop offset="1" stop-opacity="0.53"/>
</linearGradient>
<linearGradient id="paint1_linear_1646_7741" x1="10.8444" y1="12.56" x2="11.4533" y2="13.5114" gradientUnits="userSpaceOnUse">
<stop/>
<stop offset="1" stop-opacity="0.53"/>
</linearGradient>
</defs>
</svg>
