<svg width="92" height="92" viewBox="0 0 92 92" fill="none" xmlns="http://www.w3.org/2000/svg">
<rect width="92" height="92" rx="46" fill="#7E4FF6"/>
<path fill-rule="evenodd" clip-rule="evenodd" d="M19.54 57.9578C22.7976 62.8438 28.8968 64.4816 34.7403 65.8959C41.0935 67.4336 56.5221 71.2175 62.2789 67.7457C68.1465 64.207 68.4949 56.6566 70.0347 50.1538C71.5767 43.6421 72.6989 34.7279 68.7189 29.5657C64.8496 24.5471 60.4597 21.1797 53.9347 20.7138C48.4061 20.319 36.3085 20.6832 31.4591 23.586C26.4011 26.6137 24.0348 33.5978 21.7347 40.0381C20.0367 45.8789 16.2627 53.0423 19.54 57.9578Z" fill="#F74924"/>
<path fill-rule="evenodd" clip-rule="evenodd" d="M20.258 55.6788C23.5157 60.5648 35.1148 60.7055 40.9582 62.1198C47.3114 63.6574 53.6015 63.2905 59.3582 59.8187C65.2258 56.28 66.0983 50.6815 67.6382 44.1787C69.1802 37.667 70.2382 33.2407 66.2582 28.0785C62.3889 23.0599 60.4785 21.18 53.9536 20.7141C48.4249 20.3194 36.3273 20.6835 31.4779 23.5863C26.4199 26.614 24.0536 33.5982 21.7536 40.0385C20.0555 45.8792 16.9807 50.7633 20.258 55.6788Z" fill="#FF7052"/>
<ellipse cx="32.7048" cy="47.4935" rx="5.08758" ry="6.99543" fill="white"/>
<ellipse cx="31.3615" cy="49.6995" rx="2.3" ry="2.76" fill="url(#paint0_linear_1941_15289)"/>
<ellipse cx="43.7995" cy="47.4935" rx="5.08758" ry="6.99543" fill="white"/>
<ellipse cx="32.7225" cy="49.6884" rx="1.8224" ry="0.911198" transform="rotate(180 32.7225 49.6884)" fill="white"/>
<ellipse cx="42.4016" cy="49.6995" rx="2.3" ry="2.76" fill="url(#paint1_linear_1941_15289)"/>
<ellipse cx="44.034" cy="49.6884" rx="1.8224" ry="0.911198" transform="rotate(180 44.034 49.6884)" fill="white"/>
<defs>
<linearGradient id="paint0_linear_1941_15289" x1="30.5315" y1="48.1503" x2="32.8656" y2="51.7974" gradientUnits="userSpaceOnUse">
<stop/>
<stop offset="1" stop-opacity="0.53"/>
</linearGradient>
<linearGradient id="paint1_linear_1941_15289" x1="41.5715" y1="48.1503" x2="43.9056" y2="51.7974" gradientUnits="userSpaceOnUse">
<stop/>
<stop offset="1" stop-opacity="0.53"/>
</linearGradient>
</defs>
</svg>
