<svg width="82" height="82" viewBox="0 0 82 82" fill="none" xmlns="http://www.w3.org/2000/svg">
<g id="Frame 427319679">
<g id="Group 1000004435">
<rect id="Rectangle 4660" x="23.0781" y="36" width="14.056" height="35" rx="6" fill="#302DAC"/>
<rect id="Rectangle 4661" x="40.1484" y="36" width="14.056" height="35" rx="6" fill="#302DAC"/>
<rect id="Rectangle 4662" width="12.0271" height="24.8608" rx="6" transform="matrix(0.752379 -0.658731 0.661702 0.749767 52.5 42.1152)" fill="#302DAC"/>
<rect id="Rectangle 4691" x="60.2266" y="62" width="9" height="20.0799" rx="4.5" transform="rotate(90 60.2266 62)" fill="url(#paint0_linear_1639_12468)"/>
<rect id="Rectangle 4663" width="12.03" height="21.7961" rx="6" transform="matrix(0.791844 0.610724 -0.613777 0.789479 16.375 34.5215)" fill="#302DAC"/>
<g id="Group 1000004363">
<path id="Vector 798" d="M64.644 11.6986L14.404 26.3121C13.0293 26.712 12.1288 28.0274 12.2533 29.4536L13.8301 47.5149C13.9558 48.9552 15.0909 50.1009 16.53 50.2401L62.6795 54.7028C64.3624 54.8655 65.8472 53.6062 65.9614 51.9193L68.475 14.7819C68.6158 12.7023 66.6453 11.1165 64.644 11.6986Z" fill="#302DAC"/>
<path id="Vector 799" d="M65.532 11.2562L24.8523 23.3253C23.5193 23.7208 22.6328 24.9802 22.7102 26.3684L23.9406 48.4271C24.0231 49.9069 25.1739 51.1046 26.6493 51.2463L62.7436 54.7114C64.4007 54.8705 65.8705 53.6499 66.0184 51.9918L69.3734 14.3989C69.5617 12.2889 67.5629 10.6536 65.532 11.2562Z" fill="#4340DB"/>
<ellipse id="Ellipse 17" cx="43.6927" cy="32.6037" rx="5.55208" ry="7.60373" fill="white"/>
<ellipse id="Ellipse 18" cx="55.8021" cy="32.6037" rx="5.55208" ry="7.60373" fill="white"/>
<g id="Mask group">
<mask id="mask0_1639_12468" style="mask-type:alpha" maskUnits="userSpaceOnUse" x="38" y="25" width="12" height="15">
<ellipse id="Ellipse 8" cx="43.6927" cy="32.3733" rx="5.55208" ry="7.37331" fill="white"/>
</mask>
<g mask="url(#mask0_1639_12468)">
<ellipse id="Ellipse 12" cx="41.842" cy="29.6083" rx="3.70139" ry="4.60832" fill="url(#paint1_linear_1639_12468)"/>
</g>
</g>
<g id="Mask group_2">
<mask id="mask1_1639_12468" style="mask-type:alpha" maskUnits="userSpaceOnUse" x="50" y="25" width="12" height="15">
<ellipse id="Ellipse 8_2" cx="55.8021" cy="32.3733" rx="5.55208" ry="7.37331" fill="white"/>
</mask>
<g mask="url(#mask1_1639_12468)">
<ellipse id="Ellipse 12_2" cx="53.9514" cy="29.6083" rx="3.70139" ry="4.60832" fill="url(#paint2_linear_1639_12468)"/>
</g>
</g>
<ellipse id="Ellipse 324" cx="55.8003" cy="30.99" rx="1.98878" ry="0.990432" transform="rotate(180 55.8003 30.99)" fill="white"/>
<ellipse id="Ellipse 325" cx="43.4487" cy="30.99" rx="1.98878" ry="0.990432" transform="rotate(180 43.4487 30.99)" fill="white"/>
</g>
<rect id="Rectangle 4690" x="43.1641" y="62" width="9" height="20.0799" rx="4.5" transform="rotate(90 43.1641 62)" fill="url(#paint3_linear_1639_12468)"/>
</g>
</g>
<defs>
<linearGradient id="paint0_linear_1639_12468" x1="68.8516" y1="77.5619" x2="58.7426" y2="70.0104" gradientUnits="userSpaceOnUse">
<stop stop-color="#302DAC"/>
<stop offset="1" stop-color="#4340DB"/>
</linearGradient>
<linearGradient id="paint1_linear_1639_12468" x1="40.5062" y1="27.0217" x2="44.4618" y2="32.9788" gradientUnits="userSpaceOnUse">
<stop/>
<stop offset="1" stop-opacity="0.53"/>
</linearGradient>
<linearGradient id="paint2_linear_1639_12468" x1="52.4495" y1="27.0217" x2="56.4051" y2="32.9788" gradientUnits="userSpaceOnUse">
<stop/>
<stop offset="1" stop-opacity="0.53"/>
</linearGradient>
<linearGradient id="paint3_linear_1639_12468" x1="51.7891" y1="77.5619" x2="41.6801" y2="70.0104" gradientUnits="userSpaceOnUse">
<stop stop-color="#302DAC"/>
<stop offset="1" stop-color="#4340DB"/>
</linearGradient>
</defs>
</svg>
