<svg width="24" height="24" viewBox="0 0 24 24" fill="none" xmlns="http://www.w3.org/2000/svg">
<mask id="mask0_1876_15153" style="mask-type:alpha" maskUnits="userSpaceOnUse" x="0" y="0" width="24" height="24">
<rect width="24" height="24" fill="#D9D9D9"/>
</mask>
<g mask="url(#mask0_1876_15153)">
<path d="M12 15.4C13.1364 15.4 14.1023 15.0208 14.8977 14.2625C15.6932 13.5042 16.0909 12.5833 16.0909 11.5C16.0909 10.4167 15.6932 9.49583 14.8977 8.7375C14.1023 7.97917 13.1364 7.6 12 7.6C10.8636 7.6 9.89773 7.97917 9.10227 8.7375C8.30682 9.49583 7.90909 10.4167 7.90909 11.5C7.90909 12.5833 8.30682 13.5042 9.10227 14.2625C9.89773 15.0208 10.8636 15.4 12 15.4ZM12 13.84C11.3182 13.84 10.7386 13.6125 10.2614 13.1575C9.78409 12.7025 9.54545 12.15 9.54545 11.5C9.54545 10.85 9.78409 10.2975 10.2614 9.8425C10.7386 9.3875 11.3182 9.16 12 9.16C12.6818 9.16 13.2614 9.3875 13.7386 9.8425C14.2159 10.2975 14.4545 10.85 14.4545 11.5C14.4545 12.15 14.2159 12.7025 13.7386 13.1575C13.2614 13.6125 12.6818 13.84 12 13.84ZM12 18C9.78788 18 7.77273 17.4114 5.95455 16.2342C4.13636 15.0569 2.81818 13.4789 2 11.5C2.81818 9.52111 4.13636 7.94306 5.95455 6.76583C7.77273 5.58861 9.78788 5 12 5C14.2121 5 16.2273 5.58861 18.0455 6.76583C19.8636 7.94306 21.1818 9.52111 22 11.5C21.1818 13.4789 19.8636 15.0569 18.0455 16.2342C16.2273 17.4114 14.2121 18 12 18Z" fill="#A3ABB3"/>
</g>
</svg>
