<svg width="19" height="19" viewBox="0 0 19 19" fill="none" xmlns="http://www.w3.org/2000/svg">
<rect x="0.5" y="0.5" width="17" height="17" rx="4.5" stroke="#CED3DA"/>
<path d="M7.35101 12.627L7.70426 12.98L8.05768 12.6272L15.1342 5.56287L15.1344 5.56269C15.1745 5.52259 15.229 5.5 15.2859 5.5C15.3428 5.5 15.3973 5.52259 15.4374 5.56269C15.4775 5.60277 15.5 5.65706 15.5 5.7136C15.5 5.77014 15.4775 5.82443 15.4374 5.86451L7.85954 13.437C7.77544 13.521 7.64059 13.521 7.55649 13.437L4.56259 10.4452C4.54272 10.4254 4.52698 10.4018 4.51625 10.3759C4.50552 10.35 4.5 10.3223 4.5 10.2943C4.5 10.2378 4.52247 10.1835 4.56258 10.1434C4.60271 10.1033 4.65721 10.0807 4.71411 10.0807C4.77101 10.0807 4.82551 10.1033 4.86564 10.1434L7.35101 12.627Z" fill="#9FA4A9" stroke="#CED3DA"/>
</svg>
