<svg width="16" height="16" viewBox="0 0 16 16" fill="none" xmlns="http://www.w3.org/2000/svg">
<mask id="mask0_1646_7807" style="mask-type:alpha" maskUnits="userSpaceOnUse" x="0" y="0" width="16" height="16">
<rect width="16" height="16" fill="#D9D9D9"/>
</mask>
<g mask="url(#mask0_1646_7807)">
<path d="M8 8C7.175 8 6.46875 7.70625 5.88125 7.11875C5.29375 6.53125 5 5.825 5 5C5 4.175 5.29375 3.46875 5.88125 2.88125C6.46875 2.29375 7.175 2 8 2C8.825 2 9.53125 2.29375 10.1187 2.88125C10.7063 3.46875 11 4.175 11 5C11 5.825 10.7063 6.53125 10.1187 7.11875C9.53125 7.70625 8.825 8 8 8ZM2 14V11.9C2 11.475 2.10937 11.0844 2.32812 10.7281C2.54688 10.3719 2.8375 10.1 3.2 9.9125C3.975 9.525 4.7625 9.23438 5.5625 9.04062C6.3625 8.84687 7.175 8.75 8 8.75C8.825 8.75 9.6375 8.84687 10.4375 9.04062C11.2375 9.23438 12.025 9.525 12.8 9.9125C13.1625 10.1 13.4531 10.3719 13.6719 10.7281C13.8906 11.0844 14 11.475 14 11.9V14H2ZM3.5 12.5H12.5V11.9C12.5 11.7625 12.4656 11.6375 12.3969 11.525C12.3281 11.4125 12.2375 11.325 12.125 11.2625C11.45 10.925 10.7688 10.6719 10.0813 10.5031C9.39375 10.3344 8.7 10.25 8 10.25C7.3 10.25 6.60625 10.3344 5.91875 10.5031C5.23125 10.6719 4.55 10.925 3.875 11.2625C3.7625 11.325 3.67188 11.4125 3.60313 11.525C3.53438 11.6375 3.5 11.7625 3.5 11.9V12.5ZM8 6.5C8.4125 6.5 8.76563 6.35313 9.05938 6.05937C9.35313 5.76562 9.5 5.4125 9.5 5C9.5 4.5875 9.35313 4.23438 9.05938 3.94063C8.76563 3.64688 8.4125 3.5 8 3.5C7.5875 3.5 7.23438 3.64688 6.94063 3.94063C6.64687 4.23438 6.5 4.5875 6.5 5C6.5 5.4125 6.64687 5.76562 6.94063 6.05937C7.23438 6.35313 7.5875 6.5 8 6.5Z" fill="#767D86"/>
</g>
</svg>
