<svg width="24" height="24" viewBox="0 0 24 24" fill="none" xmlns="http://www.w3.org/2000/svg">
<rect width="24" height="24" rx="12" fill="#FFA722"/>
<path d="M17.6105 6.88859L5.60663 10.3941C5.27718 10.4904 5.06144 10.8057 5.09117 11.1476L5.46818 15.4832C5.49824 15.8289 5.77055 16.1039 6.1159 16.1375L17.142 17.208C17.546 17.2472 17.9026 16.9448 17.9299 16.5398L18.5307 7.62815C18.5644 7.12881 18.0909 6.7483 17.6105 6.88859Z" fill="#302DAC"/>
<path d="M17.8229 6.7833L8.10446 9.67816C7.78499 9.77332 7.57262 10.0753 7.59111 10.4081L7.88527 15.7031C7.905 16.0582 8.18106 16.3457 8.53508 16.3798L17.1575 17.2109C17.5554 17.2492 17.9084 16.9561 17.9438 16.5579L18.7456 7.53708C18.7907 7.03043 18.3104 6.63809 17.8229 6.7833Z" fill="#4340DB"/>
<ellipse cx="12.6075" cy="11.905" rx="1.3272" ry="1.82489" fill="white"/>
<ellipse cx="15.502" cy="11.905" rx="1.3272" ry="1.82489" fill="white"/>
<mask id="mask0_1646_7737" style="mask-type:alpha" maskUnits="userSpaceOnUse" x="11" y="10" width="3" height="4">
<ellipse cx="12.6065" cy="11.8497" rx="1.3272" ry="1.76959" fill="white"/>
</mask>
<g mask="url(#mask0_1646_7737)">
<ellipse cx="12.1641" cy="11.1861" rx="0.884797" ry="1.106" fill="url(#paint0_linear_1646_7737)"/>
</g>
<mask id="mask1_1646_7737" style="mask-type:alpha" maskUnits="userSpaceOnUse" x="14" y="10" width="3" height="4">
<ellipse cx="15.502" cy="11.8497" rx="1.3272" ry="1.76959" fill="white"/>
</mask>
<g mask="url(#mask1_1646_7737)">
<ellipse cx="15.0596" cy="11.1861" rx="0.884797" ry="1.106" fill="url(#paint1_linear_1646_7737)"/>
</g>
<ellipse cx="15.5002" cy="11.5182" rx="0.475408" ry="0.237704" transform="rotate(180 15.5002 11.5182)" fill="white"/>
<ellipse cx="12.549" cy="11.5182" rx="0.475408" ry="0.237704" transform="rotate(180 12.549 11.5182)" fill="white"/>
<defs>
<linearGradient id="paint0_linear_1646_7737" x1="11.8448" y1="10.5653" x2="12.7956" y2="11.9915" gradientUnits="userSpaceOnUse">
<stop/>
<stop offset="1" stop-opacity="0.53"/>
</linearGradient>
<linearGradient id="paint1_linear_1646_7737" x1="14.7006" y1="10.5653" x2="15.6514" y2="11.9915" gradientUnits="userSpaceOnUse">
<stop/>
<stop offset="1" stop-opacity="0.53"/>
</linearGradient>
</defs>
</svg>
