<svg width="24" height="24" viewBox="0 0 24 24" fill="none" xmlns="http://www.w3.org/2000/svg">
<rect width="24" height="24" rx="12" fill="#26BF66"/>
<path d="M4.68303 7.94344L7.25573 17.4427C7.35771 17.8192 7.74098 18.046 8.12012 17.9542L18.3507 15.4773C18.644 15.4063 18.8619 15.1599 18.8965 14.8601L19.7956 7.06826C19.8544 6.55886 19.3769 6.15304 18.8837 6.29311L10.4241 8.6952C10.2778 8.73676 10.122 8.73088 9.9792 8.67842L5.62626 7.07938C5.07769 6.87786 4.53025 7.37936 4.68303 7.94344Z" fill="#F7235B"/>
<path d="M6.90075 8.73753L8.8341 17.0509C8.92485 17.4412 9.31673 17.6823 9.70599 17.5873L18.3518 15.4786C18.6446 15.4072 18.8619 15.161 18.8964 14.8616L19.7956 7.06888C19.8544 6.55949 19.3769 6.15367 18.8837 6.29373L10.4239 8.69589C10.2777 8.7374 10.1221 8.73158 9.97938 8.67926L7.8499 7.89845C7.31246 7.70139 6.77109 8.17997 6.90075 8.73753Z" fill="#FF4375"/>
<path fill-rule="evenodd" clip-rule="evenodd" d="M12.5326 10.5586C12.0765 10.857 11.7598 11.5123 11.7598 12.2726C11.7598 13.3142 12.354 14.1586 13.087 14.1586C13.82 14.1586 14.4142 13.3142 14.4142 12.2726C14.4142 12.0735 14.3924 11.8816 14.3522 11.7014L12.5326 10.5586Z" fill="white"/>
<path fill-rule="evenodd" clip-rule="evenodd" d="M16.5211 10.5586C16.9773 10.857 17.2939 11.5123 17.2939 12.2726C17.2939 13.3142 16.6997 14.1586 15.9667 14.1586C15.2338 14.1586 14.6396 13.3142 14.6396 12.2726C14.6396 12.0735 14.6613 11.8816 14.7015 11.7014L16.5211 10.5586Z" fill="white"/>
<path fill-rule="evenodd" clip-rule="evenodd" d="M14.7515 13.028C14.6802 12.7966 14.6406 12.5409 14.6406 12.2721C14.6406 12.073 14.6623 11.8811 14.7026 11.7009L15.6226 11.123C15.9439 11.2889 16.17 11.6843 16.17 12.1458C16.17 12.7566 15.7738 13.2518 15.2852 13.2518C15.0848 13.2518 14.8999 13.1685 14.7515 13.028Z" fill="url(#paint0_linear_1646_7739)"/>
<path fill-rule="evenodd" clip-rule="evenodd" d="M11.8715 13.0339C12.0197 13.1739 12.2043 13.2569 12.4044 13.2569C12.8931 13.2569 13.2892 12.7617 13.2892 12.1509C13.2892 11.5401 12.8931 11.0449 12.4044 11.0449C12.2664 11.0449 12.1357 11.0845 12.0192 11.1549C11.8562 11.4682 11.7598 11.8558 11.7598 12.2753C11.7598 12.5451 11.7996 12.8018 11.8715 13.0339Z" fill="url(#paint1_linear_1646_7739)"/>
<ellipse cx="12.9549" cy="12.2377" rx="0.475408" ry="0.237704" fill="white"/>
<ellipse cx="0.475408" cy="0.237704" rx="0.475408" ry="0.237704" transform="matrix(-1 0 0 1 16.3105 12)" fill="white"/>
<defs>
<linearGradient id="paint0_linear_1646_7739" x1="14.9264" y1="12.7664" x2="15.8776" y2="11.3402" gradientUnits="userSpaceOnUse">
<stop/>
<stop offset="1" stop-opacity="0.53"/>
</linearGradient>
<linearGradient id="paint1_linear_1646_7739" x1="12.0376" y1="12.0134" x2="12.6505" y2="11.2227" gradientUnits="userSpaceOnUse">
<stop/>
<stop offset="1" stop-opacity="0.53"/>
</linearGradient>
</defs>
</svg>
