<svg width="16" height="16" viewBox="0 0 16 16" fill="none" xmlns="http://www.w3.org/2000/svg">
<mask id="mask0_1999_14635" style="mask-type:alpha" maskUnits="userSpaceOnUse" x="0" y="0" width="16" height="16">
<rect width="16" height="16" fill="#D9D9D9"/>
</mask>
<g mask="url(#mask0_1999_14635)">
<path d="M13.3 14C11.9111 14 10.5389 13.6972 9.18333 13.0917C7.82778 12.4861 6.59444 11.6278 5.48333 10.5167C4.37222 9.40556 3.51389 8.17222 2.90833 6.81667C2.30278 5.46111 2 4.08889 2 2.7C2 2.5 2.06667 2.33333 2.2 2.2C2.33333 2.06667 2.5 2 2.7 2L5.4 2C5.55556 2 5.69444 2.05278 5.81667 2.15833C5.93889 2.26389 6.01111 2.38889 6.03333 2.53333L6.46667 4.86667C6.48889 5.04444 6.48333 5.19444 6.45 5.31667C6.41667 5.43889 6.35556 5.54444 6.26667 5.63333L5.24289 6.67377C5.46512 7.08488 5.729 7.48211 6.03456 7.86544C6.34012 8.24877 6.67623 8.61822 7.04289 8.97377C7.38734 9.31822 7.74845 9.63766 8.12623 9.93211C8.504 10.2266 8.90401 10.496 9.32623 10.7404L10.3 9.76667C10.4 9.66667 10.5306 9.59167 10.6917 9.54167C10.8528 9.49167 11.0111 9.47778 11.1667 9.5L13.4667 9.96667C13.6222 10.0111 13.75 10.0917 13.85 10.2083C13.95 10.325 14 10.4556 14 10.6V13.3C14 13.5 13.9333 13.6667 13.8 13.8C13.6667 13.9333 13.5 14 13.3 14Z" fill="#232629"/>
</g>
</svg>
