<svg width="28" height="28" viewBox="0 0 28 28" fill="none" xmlns="http://www.w3.org/2000/svg">
<mask id="mask0_1876_14974" style="mask-type:alpha" maskUnits="userSpaceOnUse" x="0" y="0" width="28" height="28">
<rect width="28" height="28" fill="#D9D9D9"/>
</mask>
<g mask="url(#mask0_1876_14974)">
<path d="M8.74935 25.6654C7.62157 25.6654 6.65907 25.2668 5.86185 24.4695C5.06463 23.6723 4.66602 22.7098 4.66602 21.582V6.41536C4.66602 5.28759 5.06463 4.32509 5.86185 3.52786C6.65907 2.73064 7.62157 2.33203 8.74935 2.33203H23.3327V19.832C22.8466 19.832 22.4334 20.0022 22.0931 20.3424C21.7528 20.6827 21.5827 21.0959 21.5827 21.582C21.5827 22.0681 21.7528 22.4813 22.0931 22.8216C22.4334 23.1619 22.8466 23.332 23.3327 23.332V25.6654H8.74935ZM6.99935 17.8779C7.27157 17.7418 7.55352 17.6445 7.84518 17.5862C8.13685 17.5279 8.43824 17.4987 8.74935 17.4987H9.33268V4.66536H8.74935C8.26324 4.66536 7.85004 4.8355 7.50977 5.17578C7.16949 5.51606 6.99935 5.92925 6.99935 6.41536V17.8779ZM11.666 17.4987H20.9993V4.66536H11.666V17.4987ZM8.74935 23.332H19.6285C19.5118 23.0598 19.4195 22.7827 19.3514 22.5008C19.2834 22.2188 19.2493 21.9126 19.2493 21.582C19.2493 21.2709 19.2785 20.9695 19.3368 20.6779C19.3952 20.3862 19.4924 20.1043 19.6285 19.832H8.74935C8.24379 19.832 7.82574 20.0022 7.49518 20.3424C7.16463 20.6827 6.99935 21.0959 6.99935 21.582C6.99935 22.0876 7.16463 22.5056 7.49518 22.8362C7.82574 23.1668 8.24379 23.332 8.74935 23.332Z" fill="#767D86"/>
</g>
</svg>
