<svg width="80" height="80" viewBox="0 0 80 80" fill="none" xmlns="http://www.w3.org/2000/svg">
<g id="Frame 427319111">
<g id="Group 6481">
<path id="Subtract" fill-rule="evenodd" clip-rule="evenodd" d="M71.3327 19.1615C71.4884 17.1891 69.8416 15.546 67.8696 15.7061L12.255 20.2224C10.4564 20.3684 9.13081 21.9666 9.31969 23.7612L13.3245 61.8115C13.5375 63.8355 15.5548 65.1541 17.4942 64.5369L66.9871 48.7868C68.232 48.3907 69.1131 47.2802 69.2159 45.9779L71.3327 19.1615Z" fill="#FF7A00"/>
<g id="Mask group">
<mask id="mask0_1922_14860" style="mask-type:alpha" maskUnits="userSpaceOnUse" x="9" y="15" width="63" height="50">
<path id="Subtract_2" fill-rule="evenodd" clip-rule="evenodd" d="M71.3327 19.1615C71.4884 17.1891 69.8416 15.546 67.8696 15.7061L12.255 20.2224C10.4564 20.3684 9.13081 21.9666 9.31969 23.7612L13.3243 61.8096C13.5373 63.8336 15.5546 65.1522 17.494 64.535L66.9873 48.7848C68.2322 48.3887 69.1132 47.2782 69.216 45.9759L71.3327 19.1615Z" fill="#FFA722"/>
</mask>
<g mask="url(#mask0_1922_14860)">
<path id="Rectangle 4571" d="M-15.2694 24.3262C-15.4086 22.5571 -14.0874 21.0102 -12.3183 20.871L53.4574 15.6943C55.3831 15.5427 57.0062 17.1124 56.9193 19.042L54.8626 64.7005C54.7886 66.3434 53.486 67.6652 51.8443 67.7632L-8.40579 71.3595C-10.1535 71.4638 -11.663 70.1497 -11.8004 68.4042L-15.2694 24.3262Z" fill="#FFA722"/>
</g>
</g>
<g id="Group 6479">
<ellipse id="Ellipse 17" cx="32.7923" cy="45.1843" rx="5.08758" ry="6.99543" transform="rotate(-180 32.7923 45.1843)" fill="white"/>
<ellipse id="Ellipse 18" cx="22.6175" cy="45.1843" rx="5.08758" ry="6.99543" transform="rotate(-180 22.6175 45.1843)" fill="white"/>
<g id="Mask group_2">
<mask id="mask1_1922_14860" style="mask-type:alpha" maskUnits="userSpaceOnUse" x="27" y="38" width="11" height="15">
<ellipse id="Ellipse 8" cx="32.7952" cy="45.4001" rx="5.08758" ry="6.78345" transform="rotate(-180 32.7952 45.4001)" fill="white"/>
</mask>
<g mask="url(#mask1_1922_14860)">
<ellipse id="Ellipse 12" cx="34.4911" cy="47.9439" rx="3.39172" ry="4.23965" transform="rotate(-180 34.4911 47.9439)" fill="url(#paint0_linear_1922_14860)"/>
</g>
</g>
<g id="Mask group_3">
<mask id="mask2_1922_14860" style="mask-type:alpha" maskUnits="userSpaceOnUse" x="17" y="38" width="11" height="15">
<ellipse id="Ellipse 8_2" cx="22.6204" cy="45.4001" rx="5.08758" ry="6.78345" transform="rotate(-180 22.6204 45.4001)" fill="white"/>
</mask>
<g mask="url(#mask2_1922_14860)">
<ellipse id="Ellipse 12_2" cx="24.3163" cy="47.9439" rx="3.39172" ry="4.23965" transform="rotate(-180 24.3163 47.9439)" fill="url(#paint1_linear_1922_14860)"/>
</g>
</g>
</g>
</g>
<ellipse id="Ellipse 19" cx="22.6339" cy="46.6651" rx="1.8224" ry="0.911198" fill="white"/>
<ellipse id="Ellipse 20" cx="33.0245" cy="46.6651" rx="1.8224" ry="0.911198" fill="white"/>
</g>
<defs>
<linearGradient id="paint0_linear_1922_14860" x1="33.267" y1="45.5642" x2="36.9118" y2="51.0314" gradientUnits="userSpaceOnUse">
<stop/>
<stop offset="1" stop-opacity="0.53"/>
</linearGradient>
<linearGradient id="paint1_linear_1922_14860" x1="22.9401" y1="45.5642" x2="26.5848" y2="51.0314" gradientUnits="userSpaceOnUse">
<stop/>
<stop offset="1" stop-opacity="0.53"/>
</linearGradient>
</defs>
</svg>
