<svg width="24" height="24" viewBox="0 0 24 24" fill="none" xmlns="http://www.w3.org/2000/svg">
<mask id="mask0_2554_8360" style="mask-type:alpha" maskUnits="userSpaceOnUse" x="0" y="0" width="24" height="24">
<rect width="24" height="24" fill="#D9D9D9"/>
</mask>
<g mask="url(#mask0_2554_8360)">
<path d="M11 18C9.05 18 7.39583 17.3208 6.0375 15.9625C4.67917 14.6042 4 12.95 4 11V5C4 4.45 4.19583 3.97917 4.5875 3.5875C4.97917 3.19583 5.45 3 6 3H18.5C19.4667 3 20.2917 3.34167 20.975 4.025C21.6583 4.70833 22 5.53333 22 6.5C22 7.46667 21.6583 8.29167 20.975 8.975C20.2917 9.65833 19.4667 10 18.5 10H18V11C18 12.95 17.3208 14.6042 15.9625 15.9625C14.6042 17.3208 12.95 18 11 18ZM6 8H16V5H6V8ZM11 16C12.3833 16 13.5625 15.5125 14.5375 14.5375C15.5125 13.5625 16 12.3833 16 11V10H6V11C6 12.3833 6.4875 13.5625 7.4625 14.5375C8.4375 15.5125 9.61667 16 11 16ZM18 8H18.5C18.9167 8 19.2708 7.85417 19.5625 7.5625C19.8542 7.27083 20 6.91667 20 6.5C20 6.08333 19.8542 5.72917 19.5625 5.4375C19.2708 5.14583 18.9167 5 18.5 5H18V8ZM4 21V19H20V21H4Z" fill="#4340DB"/>
</g>
</svg>
