<svg width="24" height="24" viewBox="0 0 24 24" fill="none" xmlns="http://www.w3.org/2000/svg">
<rect x="0.00195312" width="24" height="24" rx="12" fill="#FF7052"/>
<path fill-rule="evenodd" clip-rule="evenodd" d="M18.8152 15.1161C17.9654 16.3907 16.3743 16.818 14.8499 17.1869C13.1926 17.588 9.16769 18.5751 7.66593 17.6695C6.13526 16.7463 9.26764 14.3258 8.86593 12.6295C8.46366 10.9307 4.94766 9.05613 5.98593 7.70945C6.9953 6.40026 10.8838 7.11099 12.5859 6.98945C14.0282 6.88648 14.4408 5.39227 15.7059 6.14953C17.0254 6.93936 17.3258 9.75048 17.7455 11.1944C18.1885 12.7181 19.6702 13.8338 18.8152 15.1161Z" fill="#6234D7"/>
<path fill-rule="evenodd" clip-rule="evenodd" d="M18.8147 15.1153C17.9649 16.3899 16.3738 16.8172 14.8494 17.1861C13.192 17.5873 11.3759 18.1849 9.87415 17.2792C8.34348 16.3561 9.98687 14.3286 9.58516 12.6322C9.1829 10.9335 7.22689 9.77886 8.26516 8.43218C9.27453 7.12298 11.123 7.83371 12.8252 7.71218C14.2674 7.6092 14.8 6.955 16.0651 7.71226C17.3845 8.50208 17.3252 9.74973 17.745 11.1937C18.188 12.7173 19.6696 13.833 18.8147 15.1153Z" fill="#7E4FF6"/>
<ellipse cx="12.9532" cy="13.614" rx="1.3272" ry="1.82489" fill="white"/>
<ellipse cx="13.4252" cy="13.2298" rx="0.6" ry="0.72" fill="url(#paint0_linear_1876_15029)"/>
<ellipse cx="15.8467" cy="13.614" rx="1.3272" ry="1.82489" fill="white"/>
<ellipse cx="12.8205" cy="12.9869" rx="0.475408" ry="0.237704" transform="rotate(180 12.8205 12.9869)" fill="white"/>
<ellipse cx="16.3051" cy="13.2298" rx="0.6" ry="0.72" fill="url(#paint1_linear_1876_15029)"/>
<ellipse cx="15.7717" cy="12.9869" rx="0.475408" ry="0.237704" transform="rotate(180 15.7717 12.9869)" fill="white"/>
<defs>
<linearGradient id="paint0_linear_1876_15029" x1="13.2087" y1="12.8256" x2="13.8176" y2="13.777" gradientUnits="userSpaceOnUse">
<stop/>
<stop offset="1" stop-opacity="0.53"/>
</linearGradient>
<linearGradient id="paint1_linear_1876_15029" x1="16.0885" y1="12.8256" x2="16.6974" y2="13.777" gradientUnits="userSpaceOnUse">
<stop/>
<stop offset="1" stop-opacity="0.53"/>
</linearGradient>
</defs>
</svg>
