<svg width="92" height="92" viewBox="0 0 92 92" fill="none" xmlns="http://www.w3.org/2000/svg">
<rect width="92" height="92" rx="46" fill="#26BF66"/>
<path d="M17.956 30.4541L27.818 66.8678C28.2089 68.3111 29.6782 69.1806 31.1315 68.8288L70.3487 59.3341C71.4732 59.0618 72.3085 58.1172 72.4411 56.9679L75.8875 27.0992C76.1128 25.1465 74.2827 23.5909 72.3918 24.1278L39.9636 33.3358C39.4026 33.4951 38.8055 33.4726 38.258 33.2715L21.5717 27.1418C19.4689 26.3694 17.3704 28.2918 17.956 30.4541Z" fill="#F7235B"/>
<path d="M26.4573 33.4948L33.8684 65.3628C34.2163 66.8588 35.7185 67.783 37.2107 67.419L70.3529 59.3356C71.4752 59.0618 72.3083 58.1181 72.4407 56.9705L75.8875 27.0984C76.1128 25.1457 74.2827 23.59 72.3918 24.127L39.9627 33.3352C39.4022 33.4944 38.8057 33.472 38.2587 33.2715L30.0957 30.2784C28.0355 29.523 25.9602 31.3575 26.4573 33.4948Z" fill="#FF4375"/>
<path fill-rule="evenodd" clip-rule="evenodd" d="M48.043 40.4785C46.2942 41.6222 45.0801 44.1342 45.0801 47.0492C45.0801 51.0419 47.3579 54.2786 50.1677 54.2786C52.9775 54.2786 55.2552 51.0419 55.2552 47.0492C55.2552 46.2858 55.172 45.55 55.0176 44.8592L48.043 40.4785Z" fill="white"/>
<path fill-rule="evenodd" clip-rule="evenodd" d="M63.3339 40.4785C65.0828 41.6222 66.2969 44.1342 66.2969 47.0492C66.2969 51.0419 64.0191 54.2786 61.2093 54.2786C58.3995 54.2786 56.1217 51.0419 56.1217 47.0492C56.1217 46.2858 56.205 45.55 56.3593 44.8592L63.3339 40.4785Z" fill="white"/>
<path fill-rule="evenodd" clip-rule="evenodd" d="M56.5421 49.9366C56.2707 49.0523 56.1201 48.0758 56.1201 47.0494C56.1201 46.2859 56.2034 45.5501 56.3578 44.8593L59.8902 42.6406C61.1192 43.2777 61.9836 44.7919 61.9836 46.5586C61.9836 48.9001 60.4651 50.7982 58.5919 50.7982C57.8217 50.7982 57.1115 50.4773 56.5421 49.9366Z" fill="url(#paint0_linear_1941_15287)"/>
<path fill-rule="evenodd" clip-rule="evenodd" d="M45.501 49.9328C46.0707 50.4743 46.7814 50.7957 47.5522 50.7957C49.4254 50.7957 50.944 48.8976 50.944 46.5561C50.944 44.2146 49.4254 42.3164 47.5522 42.3164C47.0272 42.3164 46.5301 42.4655 46.0864 42.7317C45.4543 43.9364 45.0801 45.4305 45.0801 47.0488C45.0801 48.074 45.2303 49.0493 45.501 49.9328Z" fill="url(#paint1_linear_1941_15287)"/>
<ellipse cx="49.6632" cy="46.9092" rx="1.8224" ry="0.911198" fill="white"/>
<ellipse cx="1.8224" cy="0.911198" rx="1.8224" ry="0.911198" transform="matrix(-1 0 0 1 62.5254 45.998)" fill="white"/>
<defs>
<linearGradient id="paint0_linear_1941_15287" x1="57.2157" y1="48.9383" x2="60.8603" y2="43.4711" gradientUnits="userSpaceOnUse">
<stop/>
<stop offset="1" stop-opacity="0.53"/>
</linearGradient>
<linearGradient id="paint1_linear_1941_15287" x1="46.1453" y1="46.029" x2="48.4947" y2="42.9977" gradientUnits="userSpaceOnUse">
<stop/>
<stop offset="1" stop-opacity="0.53"/>
</linearGradient>
</defs>
</svg>
