<svg width="92" height="92" viewBox="0 0 92 92" fill="none" xmlns="http://www.w3.org/2000/svg">
<rect width="92" height="92" rx="46" fill="#F53165"/>
<path d="M58.9547 21.3917L17.8261 39.0232C16.5701 39.5617 15.8972 40.9383 16.2439 42.2602L21.2785 61.4546C21.4933 62.2736 22.0722 62.9486 22.8487 63.2859L41.3688 71.3292C41.9492 71.5813 42.5987 71.6263 43.2084 71.4566L73.9504 62.8992C75.4989 62.4682 76.3529 60.8104 75.8049 59.2994L62.6369 22.9875C62.0961 21.4963 60.4126 20.7667 58.9547 21.3917Z" fill="#0EA44D"/>
<path d="M52.4434 24.1821L17.8261 39.0233C16.57 39.5618 15.8972 40.9384 16.2439 42.2603L21.2793 61.4576C21.4937 62.2749 22.0706 62.949 22.8451 63.287L41.2769 71.3299C41.8539 71.5817 42.4997 71.6287 43.1071 71.463L66.186 65.1678C67.7146 64.7508 68.5791 63.1354 68.078 61.6322L56.1493 25.846C55.6386 24.314 53.9276 23.5458 52.4434 24.1821Z" fill="#26BF66"/>
<path fill-rule="evenodd" clip-rule="evenodd" d="M28.0211 43.7012C26.3175 44.8149 25.1348 47.2618 25.1348 50.1011C25.1348 53.9898 27.3532 57.1423 30.0899 57.1423C32.8265 57.1423 35.045 53.9898 35.045 50.1011C35.045 49.3573 34.9638 48.6404 34.8134 47.9673L28.0211 43.7012Z" fill="white"/>
<path fill-rule="evenodd" clip-rule="evenodd" d="M42.9105 43.7012C44.6141 44.8149 45.7969 47.2618 45.7969 50.1011C45.7969 53.9898 43.5784 57.1423 40.8418 57.1423C38.1051 57.1423 35.8866 53.9898 35.8866 50.1011C35.8866 49.3573 35.9678 48.6404 36.1183 47.9673L42.9105 43.7012Z" fill="white"/>
<path fill-rule="evenodd" clip-rule="evenodd" d="M45.7345 51.3012C45.4155 54.3082 43.7582 56.6921 41.6521 57.1886C40.4272 56.5846 39.5605 55.0918 39.5605 53.3461C39.5605 51.0655 41.0395 49.2168 42.864 49.2168C44.0932 49.2168 45.1656 50.0561 45.7345 51.3012Z" fill="url(#paint0_linear_1941_15286)"/>
<path fill-rule="evenodd" clip-rule="evenodd" d="M34.9692 51.338C34.4238 49.9958 33.3089 49.0762 32.0222 49.0762C30.1977 49.0762 28.7188 50.9249 28.7188 53.2054C28.7187 54.9658 29.6 56.4689 30.8411 57.063C32.9368 56.6103 34.6012 54.2922 34.9692 51.338Z" fill="url(#paint1_linear_1941_15286)"/>
<ellipse cx="29.5972" cy="51.7547" rx="1.77495" ry="0.887473" fill="white"/>
<ellipse cx="1.77495" cy="0.887473" rx="1.77495" ry="0.887473" transform="matrix(-1 0 0 1 42.125 50.8672)" fill="white"/>
<defs>
<linearGradient id="paint0_linear_1941_15286" x1="45.1701" y1="56.262" x2="40.1089" y2="50.7422" gradientUnits="userSpaceOnUse">
<stop/>
<stop offset="1" stop-opacity="0.53"/>
</linearGradient>
<linearGradient id="paint1_linear_1941_15286" x1="33.363" y1="55.5243" x2="29.8126" y2="50.1988" gradientUnits="userSpaceOnUse">
<stop/>
<stop offset="1" stop-opacity="0.53"/>
</linearGradient>
</defs>
</svg>
