<svg width="92" height="92" viewBox="0 0 92 92" fill="none" xmlns="http://www.w3.org/2000/svg">
<rect width="92" height="92" rx="46" fill="#4340DB"/>
<path fill-rule="evenodd" clip-rule="evenodd" d="M77.3327 25.1615C77.4884 23.1891 75.8416 21.546 73.8696 21.7061L18.255 26.2224C16.4564 26.3684 15.1308 27.9666 15.3197 29.7612L19.3245 67.8115C19.5375 69.8355 21.5548 71.1541 23.4942 70.5369L72.9871 54.7868C74.232 54.3907 75.1131 53.2802 75.2159 51.9779L77.3327 25.1615Z" fill="#FF7A00"/>
<mask id="mask0_1922_14891" style="mask-type:alpha" maskUnits="userSpaceOnUse" x="15" y="21" width="63" height="50">
<path fill-rule="evenodd" clip-rule="evenodd" d="M77.3327 25.1615C77.4884 23.1891 75.8416 21.546 73.8696 21.7061L18.255 26.2224C16.4564 26.3684 15.1308 27.9666 15.3197 29.7612L19.3243 67.8096C19.5373 69.8336 21.5546 71.1522 23.494 70.535L72.9873 54.7848C74.2322 54.3887 75.1132 53.2782 75.216 51.9759L77.3327 25.1615Z" fill="#FFA722"/>
</mask>
<g mask="url(#mask0_1922_14891)">
<path d="M-9.26939 30.3262C-9.40862 28.5571 -8.08739 27.0102 -6.31835 26.871L59.4574 21.6943C61.3831 21.5427 63.0062 23.1124 62.9193 25.042L60.8626 70.7005C60.7886 72.3434 59.486 73.6652 57.8443 73.7632L-2.40579 77.3595C-4.1535 77.4638 -5.66301 76.1497 -5.80037 74.4042L-9.26939 30.3262Z" fill="#FFA722"/>
</g>
<ellipse cx="38.7923" cy="51.1843" rx="5.08758" ry="6.99543" transform="rotate(-180 38.7923 51.1843)" fill="white"/>
<ellipse cx="28.6175" cy="51.1843" rx="5.08758" ry="6.99543" transform="rotate(-180 28.6175 51.1843)" fill="white"/>
<mask id="mask1_1922_14891" style="mask-type:alpha" maskUnits="userSpaceOnUse" x="33" y="44" width="11" height="15">
<ellipse cx="38.7952" cy="51.4001" rx="5.08758" ry="6.78345" transform="rotate(-180 38.7952 51.4001)" fill="white"/>
</mask>
<g mask="url(#mask1_1922_14891)">
<ellipse cx="40.4911" cy="53.9439" rx="3.39172" ry="4.23965" transform="rotate(-180 40.4911 53.9439)" fill="url(#paint0_linear_1922_14891)"/>
</g>
<mask id="mask2_1922_14891" style="mask-type:alpha" maskUnits="userSpaceOnUse" x="23" y="44" width="11" height="15">
<ellipse cx="28.6204" cy="51.4001" rx="5.08758" ry="6.78345" transform="rotate(-180 28.6204 51.4001)" fill="white"/>
</mask>
<g mask="url(#mask2_1922_14891)">
<ellipse cx="30.3163" cy="53.9439" rx="3.39172" ry="4.23965" transform="rotate(-180 30.3163 53.9439)" fill="url(#paint1_linear_1922_14891)"/>
</g>
<ellipse cx="28.6339" cy="52.6651" rx="1.8224" ry="0.911198" fill="white"/>
<ellipse cx="39.0245" cy="52.6651" rx="1.8224" ry="0.911198" fill="white"/>
<defs>
<linearGradient id="paint0_linear_1922_14891" x1="39.267" y1="51.5642" x2="42.9118" y2="57.0314" gradientUnits="userSpaceOnUse">
<stop/>
<stop offset="1" stop-opacity="0.53"/>
</linearGradient>
<linearGradient id="paint1_linear_1922_14891" x1="28.9401" y1="51.5642" x2="32.5848" y2="57.0314" gradientUnits="userSpaceOnUse">
<stop/>
<stop offset="1" stop-opacity="0.53"/>
</linearGradient>
</defs>
</svg>
