<svg width="24" height="24" viewBox="0 0 24 24" fill="none" xmlns="http://www.w3.org/2000/svg">
<rect x="0.00195312" width="24" height="24" rx="12" fill="#26BF66"/>
<path d="M4.68498 7.94344L7.25768 17.4427C7.35966 17.8192 7.74294 18.046 8.12207 17.9542L18.3526 15.4773C18.646 15.4063 18.8639 15.1599 18.8985 14.8601L19.7975 7.06826C19.8563 6.55886 19.3789 6.15304 18.8856 6.29311L10.4261 8.6952C10.2797 8.73676 10.124 8.73088 9.98116 8.67842L5.62821 7.07938C5.07965 6.87786 4.53221 7.37936 4.68498 7.94344Z" fill="#F7235B"/>
<path d="M6.9027 8.73753L8.83605 17.0509C8.92681 17.4412 9.31869 17.6823 9.70794 17.5873L18.3537 15.4786C18.6465 15.4072 18.8638 15.161 18.8984 14.8616L19.7975 7.06888C19.8563 6.55949 19.3789 6.15367 18.8856 6.29373L10.4259 8.69589C10.2796 8.7374 10.124 8.73158 9.98133 8.67926L7.85185 7.89845C7.31441 7.70139 6.77304 8.17997 6.9027 8.73753Z" fill="#FF4375"/>
<path fill-rule="evenodd" clip-rule="evenodd" d="M12.5346 10.5586C12.0784 10.857 11.7617 11.5123 11.7617 12.2726C11.7617 13.3142 12.3559 14.1586 13.0889 14.1586C13.8219 14.1586 14.4161 13.3142 14.4161 12.2726C14.4161 12.0735 14.3944 11.8816 14.3541 11.7014L12.5346 10.5586Z" fill="white"/>
<path fill-rule="evenodd" clip-rule="evenodd" d="M16.523 10.5586C16.9792 10.857 17.2959 11.5123 17.2959 12.2726C17.2959 13.3142 16.7017 14.1586 15.9687 14.1586C15.2357 14.1586 14.6415 13.3142 14.6415 12.2726C14.6415 12.0735 14.6632 11.8816 14.7035 11.7014L16.523 10.5586Z" fill="white"/>
<path fill-rule="evenodd" clip-rule="evenodd" d="M14.7535 13.028C14.6822 12.7966 14.6426 12.5409 14.6426 12.2721C14.6426 12.073 14.6643 11.8811 14.7045 11.7009L15.6246 11.123C15.9458 11.2889 16.1719 11.6843 16.1719 12.1458C16.1719 12.7566 15.7758 13.2518 15.2871 13.2518C15.0867 13.2518 14.9018 13.1685 14.7535 13.028Z" fill="url(#paint0_linear_1876_15032)"/>
<path fill-rule="evenodd" clip-rule="evenodd" d="M11.8726 13.0311C12.021 13.1716 12.2059 13.255 12.4064 13.255C12.895 13.255 13.2912 12.7598 13.2912 12.149C13.2912 11.5381 12.895 11.043 12.4064 11.043C12.2689 11.043 12.1387 11.0822 12.0227 11.1521C11.8587 11.4659 11.7617 11.8545 11.7617 12.2753C11.7617 12.5441 11.8013 12.7997 11.8726 13.0311Z" fill="url(#paint1_linear_1876_15032)"/>
<ellipse cx="12.9569" cy="12.2377" rx="0.475408" ry="0.237704" fill="white"/>
<ellipse cx="0.475408" cy="0.237704" rx="0.475408" ry="0.237704" transform="matrix(-1 0 0 1 16.3125 12)" fill="white"/>
<defs>
<linearGradient id="paint0_linear_1876_15032" x1="14.9283" y1="12.7664" x2="15.8795" y2="11.3402" gradientUnits="userSpaceOnUse">
<stop/>
<stop offset="1" stop-opacity="0.53"/>
</linearGradient>
<linearGradient id="paint1_linear_1876_15032" x1="12.0396" y1="12.0115" x2="12.6525" y2="11.2207" gradientUnits="userSpaceOnUse">
<stop/>
<stop offset="1" stop-opacity="0.53"/>
</linearGradient>
</defs>
</svg>
