<svg width="24" height="24" viewBox="0 0 24 24" fill="none" xmlns="http://www.w3.org/2000/svg">
<mask id="mask0_1876_15156" style="mask-type:alpha" maskUnits="userSpaceOnUse" x="0" y="0" width="24" height="24">
<rect width="24" height="24" fill="#D9D9D9"/>
</mask>
<g mask="url(#mask0_1876_15156)">
<path d="M12.75 18C14.2625 17.8238 15.5156 17.2044 16.5094 16.1416C17.5031 15.0788 18 13.8311 18 12.3984C18 11.6233 17.8375 10.8805 17.5125 10.1701C17.1875 9.45958 16.725 8.84011 16.125 8.31165L15.0563 9.31572C15.5312 9.715 15.8906 10.1789 16.1344 10.7073C16.3781 11.2358 16.5 11.7995 16.5 12.3984C16.5 13.4318 16.15 14.3449 15.45 15.1375C14.75 15.9302 13.85 16.4146 12.75 16.5908V18ZM11.25 18V16.5908C10.1625 16.4029 9.26562 15.9155 8.55937 15.1287C7.85312 14.3419 7.5 13.4318 7.5 12.3984C7.5 11.224 7.9375 10.2258 8.8125 9.40379C9.6875 8.58175 10.75 8.17073 12 8.17073H12.0562L11.2312 8.9458L12.2812 9.93225L14.9062 7.46612L12.2812 5L11.2312 5.98645L12.0562 6.76152H12C10.325 6.76152 8.90625 7.30759 7.74375 8.39973C6.58125 9.49187 6 10.8248 6 12.3984C6 13.8193 6.49687 15.0612 7.49063 16.124C8.48438 17.1868 9.7375 17.8121 11.25 18Z" fill="#232629"/>
</g>
</svg>
