<svg width="87" height="302" viewBox="0 0 87 302" fill="none" xmlns="http://www.w3.org/2000/svg">
<path d="M81.0606 -43.6058L4.75755 -38.0766C2.09285 -37.8835 0.0474783 -35.6351 0.106708 -32.964L7.37422 294.774C7.44836 298.118 10.7129 300.453 13.9013 299.444L79.282 278.74C81.3456 278.086 82.757 276.183 82.7823 274.018L86.4372 -38.5458C86.4715 -41.481 83.9884 -43.8179 81.0606 -43.6058Z" fill="#FF7A00"/>
<path d="M63.5268 -23.6056L4.76141 -19.3318C2.09476 -19.1379 0.0492866 -16.8858 0.112029 -14.2128L7.36473 294.768C7.44326 298.113 10.7144 300.445 13.9024 299.427L62.9822 283.764C65.0465 283.105 66.4542 281.194 66.4719 279.028L68.9048 -18.5634C68.9288 -21.4922 66.448 -23.8181 63.5268 -23.6056Z" fill="#FFA722"/>
<ellipse cx="33.5913" cy="277.24" rx="6.99948" ry="9.62429" transform="rotate(-180 33.5913 277.24)" fill="white"/>
<ellipse cx="19.5923" cy="277.24" rx="6.99948" ry="9.62429" transform="rotate(-180 19.5923 277.24)" fill="white"/>
<mask id="mask0_2485_15024" style="mask-type:alpha" maskUnits="userSpaceOnUse" x="26" y="268" width="15" height="19">
<ellipse cx="33.5913" cy="277.532" rx="6.99948" ry="9.33264" transform="rotate(-180 33.5913 277.532)" fill="white"/>
</mask>
<g mask="url(#mask0_2485_15024)">
<ellipse cx="35.9245" cy="281.032" rx="4.66632" ry="5.8329" transform="rotate(-180 35.9245 281.032)" fill="url(#paint0_linear_2485_15024)"/>
</g>
<mask id="mask1_2485_15024" style="mask-type:alpha" maskUnits="userSpaceOnUse" x="12" y="268" width="15" height="19">
<ellipse cx="19.5923" cy="277.532" rx="6.99948" ry="9.33264" transform="rotate(-180 19.5923 277.532)" fill="white"/>
</mask>
<g mask="url(#mask1_2485_15024)">
<ellipse cx="21.9255" cy="281.032" rx="4.66632" ry="5.8329" transform="rotate(-180 21.9255 281.032)" fill="url(#paint1_linear_2485_15024)"/>
</g>
<ellipse cx="18.5" cy="281" rx="2.5" ry="1.5" fill="white"/>
<ellipse cx="32.5" cy="281" rx="2.5" ry="1.5" fill="white"/>
<defs>
<linearGradient id="paint0_linear_2485_15024" x1="32.849" y1="276.563" x2="38.849" y2="286.063" gradientUnits="userSpaceOnUse">
<stop/>
<stop offset="1" stop-opacity="0.5"/>
</linearGradient>
<linearGradient id="paint1_linear_2485_15024" x1="19.351" y1="276.563" x2="25.351" y2="286.563" gradientUnits="userSpaceOnUse">
<stop/>
<stop offset="1" stop-opacity="0.5"/>
</linearGradient>
</defs>
</svg>
