<svg width="154" height="91" viewBox="0 0 154 91" fill="none" xmlns="http://www.w3.org/2000/svg">
<g id="Group 1000008815">
<path id="Vector" d="M123.648 90.9992C114.422 90.9992 108.285 85.6959 108.004 77.7007H119.275C119.516 79.8703 121.161 81.3568 123.648 81.3568C126.335 81.3568 128.06 79.589 128.06 77.0981C128.06 74.6071 126.335 72.9197 123.648 72.9197C121.161 72.9197 119.316 74.5268 119.275 77.299L108.004 76.4954C108.325 68.5405 114.462 63.2773 123.648 63.2773C133.074 63.2773 139.292 68.8217 139.292 77.1383C139.292 85.4548 133.074 90.9992 123.648 90.9992Z" fill="black"/>
<g id="Group 1000004445">
<path id="Vector_2" d="M95.0518 90.1956V70.8104L106.083 67.2949L104.077 90.1956H95.0518Z" fill="black"/>
<path id="&#226;&#128;&#153;" d="M95.2666 56.2461H107.701L106.799 64.2814L95.2666 67.7969V56.2461Z" fill="#4340DB"/>
</g>
<path id="Vector_3" d="M81.0947 90.1973V56.248L92.1256 56.2481V90.1973H81.0947Z" fill="black"/>
<path id="Vector_4" d="M63.2522 90.9992C54.0264 90.9992 47.8892 85.6959 47.6084 77.7007H58.88C59.1206 79.8703 60.7652 81.3568 63.2522 81.3568C65.9397 81.3568 67.6646 79.589 67.6646 77.0981C67.6646 74.6071 65.9397 72.9197 63.2522 72.9197C60.7652 72.9197 58.9201 74.5268 58.88 77.299L47.6084 76.4954C47.9293 68.5405 54.0665 63.2773 63.2522 63.2773C72.6786 63.2773 78.896 68.8217 78.896 77.1383C78.896 85.4548 72.6786 90.9992 63.2522 90.9992Z" fill="black"/>
<path id="Vector_5" d="M45.4049 67.8993H28.5577V71.5152H44.8032V81.7602H28.5577V90.3981H15.1201V56.248H45.4049V67.8993Z" fill="black"/>
<path id="Vector_6" d="M127.325 33.9496V7.83478H138.356V33.9496H127.325ZM138.757 9.72308C140.883 7.83478 143.25 7.03125 146.058 7.03125C151.794 7.03125 154 9.88379 154 16.754V22.0171L142.969 22.8207V18.4012C142.969 17.5977 142.688 17.3968 141.966 17.3968C141.405 17.3968 140.562 17.7986 139.559 18.5619L138.757 9.72308Z" fill="black"/>
<path id="Vector_7" d="M109.483 34.7531C100.257 34.7531 94.1197 29.4498 93.8389 21.4547H105.11C105.351 23.6242 106.996 25.1107 109.483 25.1107C112.17 25.1107 113.895 23.3429 113.895 20.852C113.895 18.3611 112.17 16.6736 109.483 16.6736C106.996 16.6736 105.151 18.2807 105.11 21.0529L93.8389 20.2494C94.1598 12.2944 100.297 7.03125 109.483 7.03125C118.909 7.03125 125.126 12.5756 125.126 20.8922C125.126 29.2087 118.909 34.7531 109.483 34.7531Z" fill="black"/>
<g id="Group 1000004444">
<path id="&#226;&#128;&#153;_2" d="M80.5098 0L93.5463 0L92.5435 12.053L80.5098 15.0662V0Z" fill="#FFA722"/>
<path id="Vector_8" d="M91.6202 31.0567C91.6202 39.0116 88.692 41.1812 79.6667 41.1812H77.4204L76.6182 31.7397H78.5034C80.1882 31.7397 80.5893 31.3379 80.5893 29.4496V18.0796L92.5441 15.0664L91.6202 31.0567Z" fill="black"/>
</g>
<path id="Vector_9" d="M47.5382 9.72308C51.8703 7.99549 58.4889 7.03125 62.9413 7.03125C70.683 7.03125 74.4135 9.24096 74.4135 15.8701V33.9496H63.3826V24.5482H62.3798C59.4115 24.5482 57.3256 24.7893 57.3256 26.1955C57.3256 27.4008 59.0504 27.6418 61.5775 27.6418H61.9786L62.9815 33.7487C61.4171 34.3513 58.529 34.7531 55.8415 34.7531C48.7817 34.7531 45.332 31.9006 45.332 27.1999C45.332 21.8966 50.4263 17.9191 59.8126 17.9191H63.3826V17.8388C63.3826 15.9906 63.182 15.7496 60.9758 15.7496C57.0849 15.7496 51.75 16.8343 48.3405 17.8388L47.5382 9.72308Z" fill="black"/>
<path id="Vector_10" d="M0 0L15.3291 0L21.6607 17.7179L27.8642 0L43.3213 0V33.9492H30.8865V16.3921L25.4713 33.9492H17.85L12.4348 16.3921V33.9492H0L0 0Z" fill="black"/>
</g>
</svg>
