<svg width="28" height="28" viewBox="0 0 28 28" fill="none" xmlns="http://www.w3.org/2000/svg">
<rect width="28" height="28" fill="#4340DB"/>
<mask id="mask0_1876_14950" style="mask-type:alpha" maskUnits="userSpaceOnUse" x="0" y="0" width="28" height="28">
<rect width="28" height="28" fill="#D9D9D9"/>
</mask>
<g mask="url(#mask0_1876_14950)">
<path d="M12.8333 22.6632V14.6715L5.83333 10.6173V18.609L12.8333 22.6632ZM15.1667 22.6632L22.1667 18.609V10.6173L15.1667 14.6715V22.6632ZM14 12.659L20.9125 8.66315L14 4.66732L7.0875 8.66315L14 12.659ZM4.66667 20.6507C4.29722 20.4368 4.01042 20.1548 3.80625 19.8048C3.60208 19.4548 3.5 19.0659 3.5 18.6382V9.36315C3.5 8.93537 3.60208 8.54648 3.80625 8.19649C4.01042 7.84648 4.29722 7.56454 4.66667 7.35065L12.8333 2.65482C13.2028 2.44093 13.5917 2.33398 14 2.33398C14.4083 2.33398 14.7972 2.44093 15.1667 2.65482L23.3333 7.35065C23.7028 7.56454 23.9896 7.84648 24.1938 8.19649C24.3979 8.54648 24.5 8.93537 24.5 9.36315V18.6382C24.5 19.0659 24.3979 19.4548 24.1938 19.8048C23.9896 20.1548 23.7028 20.4368 23.3333 20.6507L15.1667 25.3465C14.7972 25.5604 14.4083 25.6673 14 25.6673C13.5917 25.6673 13.2028 25.5604 12.8333 25.3465L4.66667 20.6507Z" fill="white"/>
</g>
</svg>
