<svg width="16" height="16" viewBox="0 0 16 16" fill="none" xmlns="http://www.w3.org/2000/svg">
<mask id="mask0_1646_7806" style="mask-type:alpha" maskUnits="userSpaceOnUse" x="0" y="0" width="16" height="16">
<rect width="16" height="16" fill="#D9D9D9"/>
</mask>
<g mask="url(#mask0_1646_7806)">
<path d="M3.33333 14.6654C2.96667 14.6654 2.65278 14.5348 2.39167 14.2737C2.13056 14.0126 2 13.6987 2 13.332V3.9987C2 3.63203 2.13056 3.31814 2.39167 3.05703C2.65278 2.79592 2.96667 2.66536 3.33333 2.66536H4V1.33203H5.33333V2.66536H10.6667V1.33203H12V2.66536H12.6667C13.0333 2.66536 13.3472 2.79592 13.6083 3.05703C13.8694 3.31814 14 3.63203 14 3.9987V13.332C14 13.6987 13.8694 14.0126 13.6083 14.2737C13.3472 14.5348 13.0333 14.6654 12.6667 14.6654H3.33333ZM3.33333 13.332H12.6667V6.66536H3.33333V13.332ZM3.33333 5.33203H12.6667V3.9987H3.33333V5.33203Z" fill="#767D86"/>
</g>
</svg>
