<svg width="16" height="16" viewBox="0 0 16 16" fill="none" xmlns="http://www.w3.org/2000/svg">
<mask id="mask0_1646_7808" style="mask-type:alpha" maskUnits="userSpaceOnUse" x="0" y="0" width="16" height="16">
<rect width="16" height="16" fill="#D9D9D9"/>
</mask>
<g mask="url(#mask0_1646_7808)">
<path d="M11.9997 14.0013H4.66634V5.33464L9.33301 0.667969L10.1663 1.5013C10.2441 1.57908 10.308 1.68464 10.358 1.81797C10.408 1.9513 10.433 2.07908 10.433 2.2013V2.43464L9.69967 5.33464H13.9997C14.3552 5.33464 14.6663 5.46797 14.933 5.73464C15.1997 6.0013 15.333 6.31241 15.333 6.66797V8.0013C15.333 8.07908 15.3219 8.16241 15.2997 8.2513C15.2775 8.34019 15.2552 8.42352 15.233 8.5013L13.233 13.2013C13.133 13.4235 12.9663 13.6124 12.733 13.768C12.4997 13.9235 12.2552 14.0013 11.9997 14.0013ZM5.99967 12.668H11.9997L13.9997 8.0013V6.66797H7.99967L8.89967 3.0013L5.99967 5.9013V12.668ZM4.66634 5.33464V6.66797H2.66634V12.668H4.66634V14.0013H1.33301V5.33464H4.66634Z" fill="#767D86"/>
</g>
</svg>
