<svg width="24" height="24" viewBox="0 0 24 24" fill="none" xmlns="http://www.w3.org/2000/svg">
<mask id="mask0_1876_15152" style="mask-type:alpha" maskUnits="userSpaceOnUse" x="0" y="0" width="24" height="24">
<rect width="24" height="24" fill="#D9D9D9"/>
</mask>
<g mask="url(#mask0_1876_15152)">
<path d="M19.0909 21L15.2727 17.4369C14.7424 17.5943 14.2083 17.7123 13.6705 17.791C13.1326 17.8697 12.5758 17.9091 12 17.9091C9.71212 17.9091 7.67424 17.3117 5.88636 16.1168C4.09848 14.9219 2.80303 13.3729 2 11.4697C2.31818 10.7113 2.7197 10.0065 3.20455 9.35543C3.68939 8.70434 4.24242 8.12121 4.86364 7.60606L2.36364 5.20202L3.63636 4L20.3636 19.798L19.0909 21ZM12 15.3333C12.1667 15.3333 12.322 15.3262 12.4659 15.3119C12.6098 15.2976 12.7652 15.2689 12.9318 15.226L8.02273 10.5896C7.97727 10.7471 7.94697 10.8937 7.93182 11.0297C7.91667 11.1656 7.90909 11.3123 7.90909 11.4697C7.90909 12.5429 8.30682 13.4552 9.10227 14.2064C9.89773 14.9577 10.8636 15.3333 12 15.3333ZM18.6364 15.7197L15.75 13.0152C15.8561 12.7719 15.9394 12.525 16 12.2746C16.0606 12.0242 16.0909 11.7559 16.0909 11.4697C16.0909 10.3965 15.6932 9.48422 14.8977 8.73295C14.1023 7.98169 13.1364 7.60606 12 7.60606C11.697 7.60606 11.4129 7.63468 11.1477 7.69192C10.8826 7.74916 10.6212 7.83502 10.3636 7.9495L8.04545 5.7601C8.66667 5.51684 9.30303 5.33439 9.95455 5.21275C10.6061 5.09112 11.2879 5.0303 12 5.0303C14.2879 5.0303 16.3258 5.62774 18.1136 6.8226C19.9015 8.01747 21.197 9.5665 22 11.4697C21.6515 12.314 21.1932 13.0974 20.625 13.8201C20.0568 14.5427 19.3939 15.1759 18.6364 15.7197ZM14.4318 11.7702L11.7045 9.19444C12.1288 9.1229 12.5189 9.15509 12.875 9.29104C13.2311 9.42698 13.5379 9.62374 13.7955 9.88131C14.053 10.1389 14.2386 10.4358 14.3523 10.7721C14.4659 11.1084 14.4924 11.4411 14.4318 11.7702Z" fill="#A3ABB3"/>
</g>
</svg>
