<svg width="24" height="24" viewBox="0 0 24 24" fill="none" xmlns="http://www.w3.org/2000/svg">
<rect x="0.00195312" width="24" height="24" rx="12" fill="#7E4FF6"/>
<path fill-rule="evenodd" clip-rule="evenodd" d="M5.09943 15.1189C5.94925 16.3935 7.54035 16.8208 9.06472 17.1897C10.7221 17.5909 14.7469 18.578 16.2487 17.6723C17.7794 16.7492 17.8703 14.7795 18.272 13.0831C18.6742 11.3844 18.967 9.05895 17.9287 7.71227C16.9193 6.40308 15.7741 5.52462 14.072 5.40309C12.6297 5.30011 9.47383 5.3951 8.20876 6.15236C6.88928 6.94218 6.27197 8.76414 5.67197 10.4442C5.22899 11.9679 4.24447 13.8366 5.09943 15.1189Z" fill="#F74924"/>
<path fill-rule="evenodd" clip-rule="evenodd" d="M5.28695 14.5246C6.13677 15.7992 9.16263 15.8359 10.687 16.2048C12.3444 16.606 13.9852 16.5102 15.487 15.6045C17.0177 14.6814 17.2453 13.2209 17.647 11.5245C18.0493 9.82582 18.3253 8.67116 17.287 7.32448C16.2776 6.01528 15.7793 5.52488 14.0771 5.40335C12.6348 5.30037 9.47895 5.39536 8.21388 6.15262C6.8944 6.94245 6.2771 8.7644 5.67709 10.4445C5.23412 11.9682 4.432 13.2423 5.28695 14.5246Z" fill="#FF7052"/>
<ellipse cx="8.53423" cy="12.3893" rx="1.3272" ry="1.82489" fill="white"/>
<ellipse cx="8.18301" cy="12.9641" rx="0.6" ry="0.72" fill="url(#paint0_linear_1876_15030)"/>
<ellipse cx="11.4278" cy="12.3893" rx="1.3272" ry="1.82489" fill="white"/>
<ellipse cx="8.53826" cy="12.9615" rx="0.475408" ry="0.237704" transform="rotate(180 8.53826 12.9615)" fill="white"/>
<ellipse cx="11.0629" cy="12.9641" rx="0.6" ry="0.72" fill="url(#paint1_linear_1876_15030)"/>
<ellipse cx="11.4894" cy="12.9615" rx="0.475408" ry="0.237704" transform="rotate(180 11.4894 12.9615)" fill="white"/>
<defs>
<linearGradient id="paint0_linear_1876_15030" x1="7.96647" y1="12.56" x2="8.57538" y2="13.5114" gradientUnits="userSpaceOnUse">
<stop/>
<stop offset="1" stop-opacity="0.53"/>
</linearGradient>
<linearGradient id="paint1_linear_1876_15030" x1="10.8464" y1="12.56" x2="11.4553" y2="13.5114" gradientUnits="userSpaceOnUse">
<stop/>
<stop offset="1" stop-opacity="0.53"/>
</linearGradient>
</defs>
</svg>
