<svg width="24" height="24" viewBox="0 0 24 24" fill="none" xmlns="http://www.w3.org/2000/svg">
<mask id="mask0_1876_15179" style="mask-type:alpha" maskUnits="userSpaceOnUse" x="0" y="0" width="24" height="24">
<rect width="24" height="24" fill="#D9D9D9"/>
</mask>
<g mask="url(#mask0_1876_15179)">
<path d="M6.55556 19C6.12778 19 5.76157 18.8433 5.45694 18.53C5.15231 18.2167 5 17.84 5 17.4V6.2C5 5.76 5.15231 5.38333 5.45694 5.07C5.76157 4.75667 6.12778 4.6 6.55556 4.6H9.82222C9.99074 4.12 10.2727 3.73333 10.6681 3.44C11.0634 3.14667 11.5074 3 12 3C12.4926 3 12.9366 3.14667 13.3319 3.44C13.7273 3.73333 14.0093 4.12 14.1778 4.6H17.4444C17.8722 4.6 18.2384 4.75667 18.5431 5.07C18.8477 5.38333 19 5.76 19 6.2V17.4C19 17.84 18.8477 18.2167 18.5431 18.53C18.2384 18.8433 17.8722 19 17.4444 19H6.55556ZM6.55556 17.4H17.4444V6.2H6.55556V17.4ZM8.11111 15.8H13.5556V14.2H8.11111V15.8ZM8.11111 12.6H15.8889V11H8.11111V12.6ZM8.11111 9.4H15.8889V7.8H8.11111V9.4ZM12 5.6C12.1685 5.6 12.3079 5.54333 12.4181 5.43C12.5282 5.31667 12.5833 5.17333 12.5833 5C12.5833 4.82667 12.5282 4.68333 12.4181 4.57C12.3079 4.45667 12.1685 4.4 12 4.4C11.8315 4.4 11.6921 4.45667 11.5819 4.57C11.4718 4.68333 11.4167 4.82667 11.4167 5C11.4167 5.17333 11.4718 5.31667 11.5819 5.43C11.6921 5.54333 11.8315 5.6 12 5.6Z" fill="#767D86"/>
</g>
</svg>
