<svg width="24" height="24" viewBox="0 0 24 24" fill="none" xmlns="http://www.w3.org/2000/svg">
<mask id="mask0_2557_15779" style="mask-type:alpha" maskUnits="userSpaceOnUse" x="0" y="0" width="24" height="24">
<rect width="24" height="24" fill="#D9D9D9"/>
</mask>
<g mask="url(#mask0_2557_15779)">
<path d="M11.16 14.76L15.39 10.53L14.55 9.69L11.16 13.08L9.45 11.37L8.61 12.21L11.16 14.76ZM12 18C11.17 18 10.39 17.8425 9.66 17.5275C8.93 17.2125 8.295 16.785 7.755 16.245C7.215 15.705 6.7875 15.07 6.4725 14.34C6.1575 13.61 6 12.83 6 12C6 11.17 6.1575 10.39 6.4725 9.66C6.7875 8.93 7.215 8.295 7.755 7.755C8.295 7.215 8.93 6.7875 9.66 6.4725C10.39 6.1575 11.17 6 12 6C12.83 6 13.61 6.1575 14.34 6.4725C15.07 6.7875 15.705 7.215 16.245 7.755C16.785 8.295 17.2125 8.93 17.5275 9.66C17.8425 10.39 18 11.17 18 12C18 12.83 17.8425 13.61 17.5275 14.34C17.2125 15.07 16.785 15.705 16.245 16.245C15.705 16.785 15.07 17.2125 14.34 17.5275C13.61 17.8425 12.83 18 12 18Z" fill="#4B535A"/>
</g>
</svg>
