<svg width="154" height="93" viewBox="0 0 154 93" fill="none" xmlns="http://www.w3.org/2000/svg">
<path d="M94.7861 57H107.186L106.286 65L94.7861 68.5V57Z" fill="#4340DB"/>
<path d="M80.2861 1H93.2861L92.2861 13L80.2861 16V1Z" fill="#FFA722"/>
<path d="M123.301 91.6C114.101 91.6 107.981 86.32 107.701 78.36H118.941C119.181 80.52 120.821 82 123.301 82C125.981 82 127.701 80.24 127.701 77.76C127.701 75.28 125.981 73.6 123.301 73.6C120.821 73.6 118.981 75.2 118.941 77.96L107.701 77.16C108.021 69.24 114.141 64 123.301 64C132.701 64 138.901 69.52 138.901 77.8C138.901 86.08 132.701 91.6 123.301 91.6Z" fill="black"/>
<path d="M94.7861 90.8V71.5L105.786 68L103.786 90.8H94.7861Z" fill="black"/>
<path d="M80.8672 90.8V57L91.8672 57V90.8H80.8672Z" fill="black"/>
<path d="M63.0746 91.6C53.8746 91.6 47.7546 86.32 47.4746 78.36H58.7146C58.9546 80.52 60.5946 82 63.0746 82C65.7546 82 67.4746 80.24 67.4746 77.76C67.4746 75.28 65.7546 73.6 63.0746 73.6C60.5946 73.6 58.7546 75.2 58.7146 77.96L47.4746 77.16C47.7946 69.24 53.9146 64 63.0746 64C72.4746 64 78.6746 69.52 78.6746 77.8C78.6746 86.08 72.4746 91.6 63.0746 91.6Z" fill="black"/>
<path d="M45.2781 68.6H28.4781V72.2H44.6781V82.4H28.4781V91H15.0781V57H45.2781V68.6Z" fill="black"/>
<path d="M126.969 34.8V8.8H137.969V34.8H126.969ZM138.369 10.68C140.489 8.8 142.849 8 145.649 8C151.369 8 153.569 10.84 153.569 17.68V22.92L142.569 23.72V19.32C142.569 18.52 142.289 18.32 141.569 18.32C141.009 18.32 140.169 18.72 139.169 19.48L138.369 10.68Z" fill="black"/>
<path d="M109.176 35.6C99.9762 35.6 93.8562 30.32 93.5762 22.36H104.816C105.056 24.52 106.696 26 109.176 26C111.856 26 113.576 24.24 113.576 21.76C113.576 19.28 111.856 17.6 109.176 17.6C106.696 17.6 104.856 19.2 104.816 21.96L93.5762 21.16C93.8962 13.24 100.016 8 109.176 8C118.576 8 124.776 13.52 124.776 21.8C124.776 30.08 118.576 35.6 109.176 35.6Z" fill="black"/>
<path d="M91.3643 31.92C91.3643 39.84 88.4443 42 79.4443 42H77.2043L76.4043 32.6H78.2843C79.9643 32.6 80.3643 32.2 80.3643 30.32V19L92.2856 16L91.3643 31.92Z" fill="black"/>
<path d="M47.4051 10.68C51.7251 8.96 58.3251 8 62.7651 8C70.4851 8 74.2051 10.2 74.2051 16.8V34.8H63.2051V25.44H62.2051C59.2451 25.44 57.1651 25.68 57.1651 27.08C57.1651 28.28 58.8851 28.52 61.4051 28.52H61.8051L62.8051 34.6C61.2451 35.2 58.3651 35.6 55.6851 35.6C48.6451 35.6 45.2051 32.76 45.2051 28.08C45.2051 22.8 50.2851 18.84 59.6451 18.84H63.2051V18.76C63.2051 16.92 63.0051 16.68 60.8051 16.68C56.9251 16.68 51.6051 17.76 48.2051 18.76L47.4051 10.68Z" fill="black"/>
<path d="M0 1H15.2861L21.6 18.64L27.7861 1H43.2V34.8H30.8V17.32L25.4 34.8H17.8L12.4 17.32V34.8H0V1Z" fill="black"/>
</svg>
