<svg width="60" height="60" viewBox="0 0 60 60" fill="none" xmlns="http://www.w3.org/2000/svg">
<g clip-path="url(#clip0_2485_14918)">
<rect width="60" height="60" rx="30" fill="#4340DB" fill-opacity="0.2"/>
<path d="M48.7743 46.8802L10.283 36.2619C8.93658 35.8905 8.00777 34.6606 8.01895 33.2639L9.51994 -154.36C9.53259 -155.942 10.7398 -157.257 12.3146 -157.406L47.074 -160.685C48.8704 -160.855 50.428 -159.453 50.448 -157.649L52.6788 43.8727C52.7015 45.9243 50.7522 47.4259 48.7743 46.8802Z" fill="#302DAC"/>
<path d="M48.7767 46.8843L24.2018 40.1262C22.8372 39.7509 21.9031 38.4951 21.9361 37.0802L26.4427 -155.952C26.4791 -157.513 27.6755 -158.8 29.2292 -158.95L47.0667 -160.676C48.8656 -160.85 50.428 -159.448 50.448 -157.64L52.6788 43.8761C52.7015 45.9267 50.754 47.4281 48.7767 46.8843Z" fill="#4340DB"/>
<ellipse cx="4.3054" cy="5.91992" rx="4.3054" ry="5.91992" transform="matrix(1 -8.74228e-08 -8.74228e-08 -1 31.1328 38.7167)" fill="white"/>
<ellipse cx="4.3054" cy="5.91992" rx="4.3054" ry="5.91992" transform="matrix(1 -8.74228e-08 -8.74228e-08 -1 39.7441 38.7167)" fill="white"/>
<mask id="mask0_2485_14918" style="mask-type:alpha" maskUnits="userSpaceOnUse" x="31" y="27" width="9" height="12">
<ellipse cx="4.3054" cy="5.74053" rx="4.3054" ry="5.74053" transform="matrix(1 -8.74228e-08 -8.74228e-08 -1 31.1328 38.7167)" fill="white"/>
</mask>
<g mask="url(#mask0_2485_14918)">
<ellipse cx="2.87027" cy="3.58783" rx="2.87027" ry="3.58783" transform="matrix(1 -8.74228e-08 -8.74228e-08 -1 31.1328 38.7167)" fill="url(#paint0_linear_2485_14918)"/>
</g>
<mask id="mask1_2485_14918" style="mask-type:alpha" maskUnits="userSpaceOnUse" x="39" y="27" width="10" height="12">
<ellipse cx="4.3054" cy="5.74053" rx="4.3054" ry="5.74053" transform="matrix(1 -8.74228e-08 -8.74228e-08 -1 39.7441 38.7167)" fill="white"/>
</mask>
<g mask="url(#mask1_2485_14918)">
<ellipse cx="2.87027" cy="3.58783" rx="2.87027" ry="3.58783" transform="matrix(1 -8.74228e-08 -8.74228e-08 -1 39.7441 38.7167)" fill="url(#paint1_linear_2485_14918)"/>
</g>
<ellipse cx="1.53776" cy="0.922653" rx="1.53776" ry="0.922653" transform="matrix(1 0 0 -1 35.0645 35.0527)" fill="white"/>
<ellipse cx="1.53776" cy="0.922653" rx="1.53776" ry="0.922653" transform="matrix(1 0 0 -1 43.6758 35.0527)" fill="white"/>
</g>
<defs>
<linearGradient id="paint0_linear_2485_14918" x1="1.16323" y1="0.588372" x2="4.54629" y2="7.04695" gradientUnits="userSpaceOnUse">
<stop/>
<stop offset="1" stop-opacity="0.5"/>
</linearGradient>
<linearGradient id="paint1_linear_2485_14918" x1="1.47138" y1="0.588372" x2="4.54689" y2="7.04695" gradientUnits="userSpaceOnUse">
<stop/>
<stop offset="1" stop-opacity="0.5"/>
</linearGradient>
<clipPath id="clip0_2485_14918">
<rect width="60" height="60" rx="30" fill="white"/>
</clipPath>
</defs>
</svg>
